<svg width="156" height="36" viewBox="0 0 156 36" fill="none" xmlns="http://www.w3.org/2000/svg">
<g clip-path="url(#clip0_441_1750)">
<path d="M33.1163 33.165L16.4803 25.0554V0.849609L33.1163 8.95923V33.165ZM17.3464 24.5185L32.2502 31.7836V9.49614L17.3464 2.23104V24.5185Z" fill="white"/>
<path d="M27.0479 35.8496L10.4119 27.74V3.53418L27.0479 11.6438V35.8496ZM11.278 27.2031L26.1818 34.4682V12.1807L11.278 4.91561V27.2031Z" fill="white"/>
<path d="M18.9492 21.0733L0.53595 12.1191L24.6352 6.50391L43.0316 15.458L18.9492 21.0733ZM3.10054 12.4044L19.0505 20.1616L40.467 15.1672L24.534 7.40995L3.10054 12.4044Z" fill="white"/>
<path d="M18.9492 27.8467L0.53595 18.8926L24.6352 13.2773L43.0316 22.2315L18.9492 27.8467ZM3.10054 19.1834L19.0505 26.9407L40.467 21.9462L24.534 14.189L3.10054 19.1834Z" fill="white"/>
<path d="M126.493 18.7412H155.536V17.2646H126.493C125.711 17.2646 124.997 17.9582 124.997 18.7244V32.5331L126.493 32.5443V26.0622H149.631V24.513H126.493V18.73V18.7412Z" fill="white"/>
<path d="M54.7747 18.741H77.9122V17.2645H54.7747V10.6426H53.2787V24.524C53.2787 25.307 53.9929 26.0732 54.7747 26.0732H83.8175V24.524H54.7747V18.741Z" fill="white"/>
<path d="M90.5889 18.7406H117.956V24.5236H90.5889V18.7406ZM117.956 17.2641H90.5889C89.8072 17.2641 89.0817 17.9576 89.0817 18.7238V32.5326L90.5889 32.5438V26.0617H117.956C118.738 26.0617 119.441 25.2898 119.441 24.5124V18.7294C119.441 17.952 118.743 17.2529 117.956 17.2529" fill="white"/>
</g>
<defs>
<clipPath id="clip0_441_1750">
<rect width="155" height="35" fill="white" transform="translate(0.53595 0.849609)"/>
</clipPath>
</defs>
</svg>
