<svg width="44" height="36" viewBox="0 0 44 36" fill="none" xmlns="http://www.w3.org/2000/svg">
<path d="M33.1163 33.165L16.4803 25.0554V0.849609L33.1163 8.95923V33.165ZM17.3464 24.5185L32.2502 31.7836V9.49614L17.3464 2.23104V24.5185Z" fill="white"/>
<path d="M27.0479 35.8496L10.4119 27.74V3.53418L27.0479 11.6438V35.8496ZM11.278 27.2031L26.1818 34.4682V12.1807L11.278 4.91561V27.2031Z" fill="white"/>
<path d="M18.9492 21.0733L0.53595 12.1191L24.6352 6.50391L43.0316 15.458L18.9492 21.0733ZM3.10054 12.4044L19.0505 20.1616L40.467 15.1672L24.534 7.40995L3.10054 12.4044Z" fill="white"/>
<path d="M18.9492 27.8467L0.53595 18.8926L24.6352 13.2773L43.0316 22.2315L18.9492 27.8467ZM3.10054 19.1834L19.0505 26.9407L40.467 21.9462L24.534 14.189L3.10054 19.1834Z" fill="white"/>
</svg>
