<svg xmlns="http://www.w3.org/2000/svg" width="14" height="18" viewBox="0 0 14 18" fill="none">
  <path d="M9.76982 16.1289C9.82474 15.9979 9.87202 15.8862 9.91884 15.7737C9.99447 15.5918 10.0683 15.409 10.1444 15.2271C10.2849 14.8913 10.5482 14.74 10.9075 14.781C11.2298 14.8179 11.5526 14.8498 11.8754 14.8832C11.902 14.8859 11.929 14.8832 11.979 14.8832C11.8962 14.7382 11.8237 14.6112 11.7507 14.4847C11.0205 13.2183 10.2889 11.9527 9.56362 10.6836C9.5096 10.5891 9.47493 10.468 9.47718 10.3599C9.48078 10.1857 9.619 10.0484 9.77882 10.0137C9.97106 9.97183 10.1408 10.0416 10.2416 10.214C10.4492 10.5684 10.6527 10.9249 10.858 11.2806C11.5184 12.4259 12.178 13.5717 12.8393 14.717C12.9812 14.9628 12.9947 15.21 12.8384 15.45C12.6822 15.6908 12.4481 15.7768 12.1672 15.7462C12.0078 15.7287 11.8489 15.712 11.6895 15.6949C11.4486 15.6688 11.2073 15.6449 10.9674 15.6134C10.8922 15.6035 10.8665 15.6373 10.8427 15.6971C10.7063 16.0361 10.5644 16.3729 10.4294 16.7119C10.3218 16.9811 10.1318 17.1459 9.84095 17.1653C9.55147 17.1846 9.33897 17.0518 9.194 16.7992C8.41604 15.4468 7.63583 14.0953 6.85607 12.7438C6.8277 12.6947 6.79889 12.6461 6.75747 12.5749C6.71605 12.6443 6.68499 12.6951 6.65527 12.7469C5.87776 14.0953 5.10115 15.4437 4.32319 16.7911C4.12825 17.1292 3.79059 17.2531 3.45474 17.113C3.27735 17.0392 3.16435 16.9041 3.09322 16.7299C2.95681 16.3954 2.81724 16.0623 2.68533 15.7259C2.64976 15.6346 2.60924 15.6044 2.50525 15.6179C2.11446 15.6683 1.72188 15.707 1.32975 15.7476C1.05242 15.7759 0.824616 15.6805 0.673346 15.445C0.524327 15.2141 0.530179 14.9714 0.667043 14.7337C1.53189 13.2322 2.39675 11.7308 3.26295 10.2298C3.38991 10.0096 3.63797 9.93851 3.84507 10.0565C4.04721 10.1717 4.10574 10.4247 3.97653 10.6489C3.20352 11.9901 2.42961 13.3308 1.65615 14.6716C1.61969 14.7346 1.58367 14.7981 1.53505 14.8823C1.58547 14.8823 1.61518 14.885 1.64445 14.8823C1.9713 14.8485 2.29815 14.8147 2.62455 14.7792C2.96761 14.7418 3.23503 14.8989 3.3683 15.2204C3.4903 15.5153 3.61096 15.811 3.74287 16.1329C3.77799 16.078 3.80185 16.0433 3.82256 16.0069C4.66985 14.5378 5.51759 13.0693 6.36264 11.5989C6.45358 11.4404 6.57198 11.3319 6.75972 11.3328C6.94746 11.3337 7.06496 11.4427 7.15591 11.6011C8.0023 13.0751 8.85229 14.5478 9.70139 16.0204C9.7194 16.0514 9.74055 16.0803 9.77252 16.1293L9.76982 16.1289Z" fill="white" stroke="white" stroke-width="0.2"/>
  <path d="M6.21686 7.06892C6.50661 6.66294 6.78314 6.27459 7.05966 5.88624L7.06 5.88577C7.09632 5.83492 7.27089 5.58411 7.4797 5.2841C7.82525 4.78762 8.26458 4.15641 8.32641 4.07362C8.50496 3.83556 8.82403 3.78156 9.04721 3.94743C9.27205 4.11495 9.32109 4.41804 9.15026 4.65941C8.98843 4.88839 8.72482 5.26337 8.42486 5.69007C7.79432 6.58703 7.00312 7.71253 6.65882 8.19089C6.43509 8.50169 6.05319 8.51161 5.81458 8.21018C5.59537 7.93335 5.2974 7.51607 5.00931 7.11263C4.77668 6.78686 4.55049 6.4701 4.37742 6.24361C4.19612 6.0061 4.23194 5.70466 4.44961 5.52832C4.67004 5.34978 4.98139 5.3856 5.17371 5.62366C5.29543 5.77426 5.48997 6.05658 5.67859 6.33031C5.84265 6.56841 6.00224 6.80001 6.10555 6.9328C6.12394 6.95655 6.14314 6.97968 6.16623 7.0075C6.1812 7.02552 6.1978 7.04552 6.21686 7.06892Z" fill="white"/>
  <path d="M6.21686 7.06892C6.50661 6.66294 6.78314 6.27459 7.05966 5.88624L7.06 5.88577C7.09632 5.83492 7.27089 5.58411 7.4797 5.2841C7.82525 4.78762 8.26458 4.15641 8.32641 4.07362C8.50496 3.83556 8.82403 3.78156 9.04721 3.94743C9.27205 4.11495 9.32109 4.41804 9.15026 4.65941C8.98843 4.88839 8.72482 5.26337 8.42486 5.69007C7.79432 6.58703 7.00312 7.71253 6.65882 8.19089C6.43509 8.50169 6.05319 8.51161 5.81458 8.21018C5.59537 7.93335 5.2974 7.51607 5.00931 7.11263C4.77668 6.78686 4.55049 6.4701 4.37742 6.24361C4.19612 6.0061 4.23194 5.70466 4.44961 5.52832C4.67004 5.34978 4.98139 5.3856 5.17371 5.62366C5.29543 5.77426 5.48997 6.05658 5.67859 6.33031C5.84265 6.56841 6.00224 6.80001 6.10555 6.9328C6.12394 6.95655 6.14314 6.97968 6.16623 7.0075C6.1812 7.02552 6.1978 7.04552 6.21686 7.06892Z" stroke="white"/>
  <circle cx="6.7569" cy="6.14056" r="5.05072" stroke="white"/>
</svg>