<svg width="18" height="18" viewBox="0 0 18 18" fill="none" xmlns="http://www.w3.org/2000/svg">
<g clip-path="url(#clip0_255_185)">
<path fill-rule="evenodd" clip-rule="evenodd" d="M9 4.23421C9.28103 4.23421 9.50885 4.46203 9.50885 4.74306L9.50885 8.55195L13.3177 8.55195C13.5988 8.55195 13.8266 8.77977 13.8266 9.0608C13.8266 9.34183 13.5988 9.56965 13.3177 9.56965L9.50885 9.56965V13.3785C9.50885 13.6596 9.28103 13.8874 9 13.8874C8.71897 13.8874 8.49115 13.6596 8.49115 13.3785V9.56965L4.68226 9.56965C4.40123 9.56965 4.17341 9.34183 4.17341 9.0608C4.17341 8.77977 4.40123 8.55195 4.68226 8.55195L8.49115 8.55195L8.49115 4.74306C8.49115 4.46203 8.71897 4.23421 9 4.23421Z" fill="white"/>
</g>
<defs>
<clipPath id="clip0_255_185">
<rect width="12.2124" height="12.2124" fill="white" transform="translate(9 0.425781) rotate(45)"/>
</clipPath>
</defs>
</svg>
