<svg xmlns="http://www.w3.org/2000/svg" width="15" height="15" viewBox="0 0 15 15" fill="none">
  <path fill-rule="evenodd" clip-rule="evenodd" d="M13.5272 1.48539H1.98649L1.98649 12.8722L13.5272 12.8722V1.48539ZM1.98649 0.270508C1.31553 0.270508 0.771606 0.814428 0.771606 1.48539V12.8722C0.771606 13.5431 1.31553 14.087 1.98649 14.087H13.5272C14.1982 14.087 14.7421 13.5431 14.7421 12.8722V1.48539C14.7421 0.814429 14.1982 0.270508 13.5272 0.270508H1.98649Z" fill="white"/>
  <path fill-rule="evenodd" clip-rule="evenodd" d="M4.81087 11.3945C4.47539 11.3945 4.20343 11.1226 4.20343 10.7871L4.20343 6.84034C4.20343 6.50486 4.47539 6.2329 4.81087 6.2329C5.14635 6.2329 5.41831 6.50486 5.41831 6.84034L5.41831 10.7871C5.41831 11.1226 5.14635 11.3945 4.81087 11.3945Z" fill="white"/>
  <path fill-rule="evenodd" clip-rule="evenodd" d="M7.67122 11.3945C7.33574 11.3945 7.06378 11.1226 7.06378 10.7871L7.06378 5.11979C7.06378 4.78431 7.33574 4.51235 7.67122 4.51235C8.0067 4.51235 8.27866 4.78431 8.27866 5.11979L8.27866 10.7871C8.27866 11.1226 8.0067 11.3945 7.67122 11.3945Z" fill="white"/>
  <path fill-rule="evenodd" clip-rule="evenodd" d="M10.5315 11.3945C10.196 11.3945 9.92401 11.1226 9.92401 10.7871L9.92401 3.57184C9.92401 3.23636 10.196 2.9644 10.5315 2.9644C10.8669 2.9644 11.1389 3.23636 11.1389 3.57184L11.1389 10.7871C11.1389 11.1226 10.8669 11.3945 10.5315 11.3945Z" fill="white"/>
</svg>