<svg width="15" height="16" viewBox="0 0 15 16" fill="none" xmlns="http://www.w3.org/2000/svg">
<path fill-rule="evenodd" clip-rule="evenodd" d="M14.4803 1.19936C14.8737 1.59277 14.8737 2.23062 14.4803 2.62403L9.14829 7.95607L14.4803 13.2881C14.8737 13.6815 14.8737 14.3194 14.4803 14.7128C14.0869 15.1062 13.4491 15.1062 13.0557 14.7128L7.72362 9.38074L2.39158 14.7128C1.99817 15.1062 1.36032 15.1062 0.966913 14.7128C0.573499 14.3194 0.573499 13.6815 0.966913 13.2881L6.29895 7.95607L0.966913 2.62403C0.5735 2.23062 0.5735 1.59277 0.966913 1.19936C1.36032 0.805943 1.99817 0.805943 2.39159 1.19936L7.72362 6.53139L13.0557 1.19936C13.4491 0.805944 14.0869 0.805944 14.4803 1.19936Z" fill="#A0A0A0"/>
</svg>
