<svg id="ecuYZ0QK5zm1" xmlns="http://www.w3.org/2000/svg" xmlns:xlink="http://www.w3.org/1999/xlink" viewBox="0 0 20082 5764" shape-rendering="geometricPrecision" text-rendering="geometricPrecision">
<style><![CDATA[
#ecuYZ0QK5zm2_to {animation: ecuYZ0QK5zm2_to__to 3000ms linear 1 normal forwards}@keyframes ecuYZ0QK5zm2_to__to { 0% {transform: translate(14865.881619px,13893.403358px)} 48% {transform: translate(-11381.340602px,9357.864889px)} 66.666667% {transform: translate(-10016.677549px,-2641.070664px)} 100% {transform: translate(-10016.677549px,-2641.070664px)}} #ecuYZ0QK5zm2_tr {animation: ecuYZ0QK5zm2_tr__tr 3000ms linear 1 normal forwards}@keyframes ecuYZ0QK5zm2_tr__tr { 0% {transform: rotate(-0.054773deg)} 48% {transform: rotate(0.177812deg)} 66.666667% {transform: rotate(31.445429deg)} 100% {transform: rotate(31.445429deg)}} #ecuYZ0QK5zm4_to {animation: ecuYZ0QK5zm4_to__to 3000ms linear 1 normal forwards}@keyframes ecuYZ0QK5zm4_to__to { 0% {transform: translate(-9350.263648px,-2810.868736px)} 48% {transform: translate(25170.927553px,-7346.407205px)} 66.666667% {transform: translate(22392.6019px,-2242.839099px)} 100% {transform: translate(22392.6019px,-2242.839099px)}} #ecuYZ0QK5zm4_tr {animation: ecuYZ0QK5zm4_tr__tr 3000ms linear 1 normal forwards}@keyframes ecuYZ0QK5zm4_tr__tr { 0% {transform: rotate(1.114858deg)} 3.333333% {transform: rotate(1.114858deg)} 48% {transform: rotate(1.347443deg)} 66.666667% {transform: rotate(32.61506deg)} 100% {transform: rotate(32.61506deg)}} #ecuYZ0QK5zm6_to {animation: ecuYZ0QK5zm6_to__to 3000ms linear 1 normal forwards}@keyframes ecuYZ0QK5zm6_to__to { 0% {transform: translate(19792.64815px,15603.098185px)} 48% {transform: translate(-6454.574071px,11067.559716px)} 66.666667% {transform: translate(-4972.014899px,2472.480914px)} 100% {transform: translate(-4972.014899px,2472.480914px)}} #ecuYZ0QK5zm6_tr {animation: ecuYZ0QK5zm6_tr__tr 3000ms linear 1 normal forwards}@keyframes ecuYZ0QK5zm6_tr__tr { 0% {transform: rotate(-0.054773deg)} 48% {transform: rotate(0.177812deg)} 66.666667% {transform: rotate(31.445429deg)} 100% {transform: rotate(31.445429deg)}}
]]></style>
<defs><filter id="ecuYZ0QK5zm2-filter" x="-150%" width="400%" y="-150%" height="400%"><feGaussianBlur id="ecuYZ0QK5zm2-filter-drop-shadow-0-blur" in="SourceAlpha" stdDeviation="88.5,88.5"/><feOffset id="ecuYZ0QK5zm2-filter-drop-shadow-0-offset" dx="0" dy="0" result="tmp"/><feFlood id="ecuYZ0QK5zm2-filter-drop-shadow-0-flood" flood-color="rgba(0,0,0,0.83)"/><feComposite id="ecuYZ0QK5zm2-filter-drop-shadow-0-composite" operator="in" in2="tmp"/><feMerge id="ecuYZ0QK5zm2-filter-drop-shadow-0-merge" result="result"><feMergeNode id="ecuYZ0QK5zm2-filter-drop-shadow-0-merge-node-1"/><feMergeNode id="ecuYZ0QK5zm2-filter-drop-shadow-0-merge-node-2" in="SourceGraphic"/></feMerge></filter><filter id="ecuYZ0QK5zm4-filter" x="-150%" width="400%" y="-150%" height="400%"><feGaussianBlur id="ecuYZ0QK5zm4-filter-drop-shadow-0-blur" in="SourceAlpha" stdDeviation="88.5,88.5"/><feOffset id="ecuYZ0QK5zm4-filter-drop-shadow-0-offset" dx="0" dy="0" result="tmp"/><feFlood id="ecuYZ0QK5zm4-filter-drop-shadow-0-flood" flood-color="rgba(0,0,0,0.83)"/><feComposite id="ecuYZ0QK5zm4-filter-drop-shadow-0-composite" operator="in" in2="tmp"/><feMerge id="ecuYZ0QK5zm4-filter-drop-shadow-0-merge" result="result"><feMergeNode id="ecuYZ0QK5zm4-filter-drop-shadow-0-merge-node-1"/><feMergeNode id="ecuYZ0QK5zm4-filter-drop-shadow-0-merge-node-2" in="SourceGraphic"/></feMerge></filter><filter id="ecuYZ0QK5zm6-filter" x="-150%" width="400%" y="-150%" height="400%"><feGaussianBlur id="ecuYZ0QK5zm6-filter-drop-shadow-0-blur" in="SourceAlpha" stdDeviation="88.5,88.5"/><feOffset id="ecuYZ0QK5zm6-filter-drop-shadow-0-offset" dx="0" dy="0" result="tmp"/><feFlood id="ecuYZ0QK5zm6-filter-drop-shadow-0-flood" flood-color="rgba(0,0,0,0.83)"/><feComposite id="ecuYZ0QK5zm6-filter-drop-shadow-0-composite" operator="in" in2="tmp"/><feMerge id="ecuYZ0QK5zm6-filter-drop-shadow-0-merge" result="result"><feMergeNode id="ecuYZ0QK5zm6-filter-drop-shadow-0-merge-node-1"/><feMergeNode id="ecuYZ0QK5zm6-filter-drop-shadow-0-merge-node-2" in="SourceGraphic"/></feMerge></filter></defs><g id="ecuYZ0QK5zm2_to" transform="translate(14865.881619,13893.403358)"><g id="ecuYZ0QK5zm2_tr" transform="rotate(-0.054773)"><g transform="scale(2.823078,2.827315) translate(-8425.58851,-9248.854347)" filter="url(#ecuYZ0QK5zm2-filter)"><path d="M899.555,240.56c-805.0759,271.512-523.719,308-715.5,194.223L177.763,5562.16l19720.137,24.2l6.3-5127.376c-1117.4,902.206-1815.8-871.979-4089.8-5.019-2137.3,814.825-2398.2-832.109-4449.8-5.461-1867.14,752.296-2609.45-606.341-4121.99-5.058-1715.25,681.864-1938.67-626.8-3442.24-4.225C2284,1067.1,1905.9,-98.8305,899.555,240.56Z" transform="translate(987.125168 6120.17604)" fill="#0e67d4"/></g></g></g><g id="ecuYZ0QK5zm4_to" transform="translate(-9350.263648,-2810.868736)"><g id="ecuYZ0QK5zm4_tr" transform="rotate(1.114858)"><g transform="scale(2.823078,2.827315) translate(-10040.980774,-2881.80957)" filter="url(#ecuYZ0QK5zm4-filter)"><path d="M899.555,240.56c-805.0759,271.512-523.719,308-715.5,194.223L177.763,5562.16l19720.137,24.2l6.3-5127.376c-1117.4,902.206-1815.8-871.979-4089.8-5.019-2137.3,814.825-2398.2-832.109-4449.8-5.461-1867.14,752.296-2609.45-606.341-4121.99-5.058-1715.25,681.864-1938.67-626.8-3442.24-4.225C2284,1067.1,1905.9,-98.8305,899.555,240.56Z" transform="translate(987.125168 6120.17604)" fill="#00479f"/></g></g></g><g id="ecuYZ0QK5zm6_to" transform="translate(19792.64815,15603.098185)"><g id="ecuYZ0QK5zm6_tr" transform="rotate(-0.054773)"><g transform="scale(2.823078,2.827315) translate(-10040.980774,-2881.80957)" filter="url(#ecuYZ0QK5zm6-filter)"><path d="M899.555,240.56c-805.0759,271.512-523.719,308-715.5,194.223L177.763,5562.16l19720.137,24.2l6.3-5127.376c-1117.4,902.206-1815.8-871.979-4089.8-5.019-2137.3,814.825-2398.2-832.109-4449.8-5.461-1867.14,752.296-2609.45-606.341-4121.99-5.058-1715.25,681.864-1938.67-626.8-3442.24-4.225C2284,1067.1,1905.9,-98.8305,899.555,240.56Z" fill="#00326f"/></g></g></g></svg>
