<svg width="154" height="150" viewBox="0 0 154 150" fill="none" xmlns="http://www.w3.org/2000/svg">
<g clip-path="url(#clip0_1303_613)">
<path d="M58.0891 -6.29186L7.1553 -4.97582L2.79499 152.434L62.601 150.888L64.7099 157.734L78.9078 154.916L93.5676 159.133L100.062 149.92L152.399 -8.72866L58.0891 -6.29186Z" fill="#F3F3F3"/>
<path d="M-84.6251 107.705L25.7748 134.264L9.63848 62.1497L-84.6251 107.705Z" fill="#5ABDFE"/>
<path d="M-18.0876 -61.7847L9.64332 62.1469L113.02 12.1783L86.2673 -107.38L79.5723 -108.983L-18.0876 -61.7847Z" fill="#5ABDFE"/>
<path d="M-151.066 2.49674L-191.54 -7.19165L-170.448 87.0688L-84.6235 107.708L9.63913 62.1496L-18.0921 -61.7832L-151.066 2.49674Z" fill="#0096FF"/>
<path d="M94.4275 150.771L32.5734 164.606L25.7856 134.269L94.4275 150.771Z" fill="#0067FF"/>
<path d="M25.7824 134.254L48.9405 237.758L2.60887 226.611L-268.382 161.454L-284.987 87.2373L-122.613 126.086L-84.6263 107.704L25.7676 134.257L25.7824 134.254Z" fill="#BCE4FE"/>
<path d="M269.653 -63.5314L86.2654 -107.376L113.014 12.174L133.318 2.36614L145.241 -3.39388L269.653 -63.5314Z" fill="#BCE4FE"/>
<line x1="161.476" y1="-23.9364" x2="94.6879" y2="178.912" stroke="#ED7D31"/>
<path d="M68.9491 88.0173H70.4341V88.5075H68.3972V85.5186H70.4033V86.0088H68.9467V86.743H70.1593V87.2285H68.9467V88.0149L68.9491 88.0173Z" fill="#0067FF"/>
<path d="M73.3543 85.5186H73.9014V88.5075H73.3212L71.9451 86.4186V88.5075H71.398V85.5186H71.9783L73.3543 87.6075V85.5186Z" fill="#0067FF"/>
<path d="M76.3693 86.8258H77.7099V88.5074H77.2906L77.248 88.0929C77.0467 88.3842 76.7009 88.5406 76.2793 88.5406C75.4504 88.5406 74.8322 87.9248 74.8322 87.0248C74.8322 86.1248 75.4764 85.4829 76.3528 85.4829C77.0396 85.4829 77.5748 85.8713 77.6933 86.4516H77.1035C77.0017 86.1484 76.7151 85.9826 76.3575 85.9826C75.8057 85.9826 75.4006 86.3758 75.4006 87.0153C75.4006 87.6547 75.8009 88.0456 76.348 88.0456C76.8217 88.0456 77.1722 87.7471 77.2101 87.2853H76.3693V86.8234V86.8258Z" fill="#0067FF"/>
<path d="M79.2754 88.0173H80.7604V88.5075H78.7235V85.5186H80.732V86.0088H79.2754V86.743H80.488V87.2285H79.2754V88.0149V88.0173Z" fill="#0067FF"/>
<path d="M83.6807 85.5186H84.2278V88.5075H83.6475L82.2715 86.4186V88.5075H81.7243V85.5186H82.3046L83.6807 87.6075V85.5186Z" fill="#0067FF"/>
<path d="M87.1954 85.5186H87.7472V88.5075H87.1954V87.2167H85.862V88.5075H85.3101V85.5186H85.862V86.7146H87.1954V85.5186Z" fill="#0067FF"/>
<path d="M90.8996 88.5075L90.6391 87.7899H89.3672L89.1067 88.5075H88.5478L89.6633 85.5186H90.3596L91.4751 88.5075H90.902H90.8996ZM89.533 87.3257H90.4733L90.0043 86.0278L89.5354 87.3257H89.533Z" fill="#0067FF"/>
<path d="M93.9952 88.5075L93.3083 87.4275H92.8228V88.5075H92.2709V85.5186H93.5002C94.1231 85.5186 94.547 85.9165 94.547 86.4754C94.547 86.9112 94.2912 87.2357 93.8767 87.3541L94.6275 88.5075H93.9952ZM92.8204 86.0088V86.9349H93.4741C93.8104 86.9349 93.9904 86.7549 93.9904 86.473C93.9904 86.1912 93.8104 86.0088 93.4741 86.0088H92.8204Z" fill="#0067FF"/>
<path d="M95.5417 88.5075V85.5186H96.0935V88.5075H95.5417Z" fill="#0067FF"/>
<path d="M99.2436 88.5075L98.983 87.7899H97.7112L97.4507 88.5075H96.8917L98.0072 85.5186H98.7036L99.8191 88.5075H99.2459H99.2436ZM97.877 87.3257H98.8173L98.3483 86.0278L97.8794 87.3257H97.877Z" fill="#0067FF"/>
<path d="M96.1126 72.2528H112V71.4404H96.1126C95.6721 71.4523 95.3145 71.8028 95.2932 72.2457V79.8436L96.1126 79.8507V76.2862H108.77V75.436H96.1126V72.2552V72.2528Z" fill="#0067FF"/>
<path d="M56.8844 72.2529H69.5413V71.4405H56.8844V67.7979H56.065V75.4337C56.0792 75.886 56.4321 76.2531 56.8844 76.2839H72.7718V75.4337H56.8844V72.2529Z" fill="#0067FF"/>
<path d="M76.4713 72.2528H91.4445V75.4336H76.4713V72.2528ZM91.4445 71.4404H76.4713C76.0284 71.4523 75.6708 71.8028 75.6471 72.2457V79.8412L76.4713 79.8483V76.2839H91.4445C91.8945 76.2507 92.245 75.8836 92.2545 75.4336V72.2528C92.2403 71.8123 91.885 71.457 91.4445 71.4428" fill="#0067FF"/>
<path d="M44.822 79.82L41.6862 78.2805V76.22L44.822 75.4858V79.82ZM41.3759 81.3974L32.6554 77.1177V75.1163L34.1901 75.8671L37.1033 77.2929L38.368 76.9969L41.3736 78.4724V81.3998L41.3759 81.3974ZM32.3475 71.3269V74.6237L27.7883 72.3926L32.3475 71.3245V71.3269ZM32.3475 67.4166V70.73L27.7646 68.4895L32.3475 67.4166ZM32.6554 67.0282V64.0724L35.7936 65.6118V66.294L34.2233 66.6611L32.653 67.0282H32.6554ZM36.1014 62.4927L44.822 66.77V67.374L40.4001 65.2116L38.6428 65.6237L37.2028 65.96L36.0991 65.4176V62.4903L36.1014 62.4927ZM45.1299 71.1848V67.8666L49.7152 70.1071L45.1299 71.1824V71.1848ZM45.1299 75.0974V71.7603L49.7412 74.015L45.1299 75.0974ZM36.1014 65.7611L36.7338 66.0713L36.1014 66.2205V65.7611ZM40.3646 65.5361L44.822 67.715V71.2534L44.803 71.2582L41.6838 69.7329V68.1555L37.6409 66.1732L38.5551 65.96L40.367 65.5361H40.3646ZM35.7936 70.5216V72.414L33.1741 71.1327L33.2357 71.1184L35.7936 70.5192V70.5216ZM37.1672 66.2869L41.3759 68.3498V69.5861L40.4238 69.1195L36.0991 70.1332V66.5379L37.1672 66.2869ZM41.6838 75.905V72.3074L43.2565 71.9379L44.7675 71.585L44.822 71.6111V75.1685L41.6838 75.9027V75.905ZM41.6838 71.99V70.0763L44.3293 71.3695L42.8965 71.7058L41.6838 71.99ZM36.1014 70.4482L40.3883 69.444L41.3759 69.9271V72.0611L37.1175 73.0606L36.1014 72.5632V70.4482ZM36.1014 72.9042L37.082 73.385L41.3783 72.3784V75.9761L38.4083 76.6724L36.1014 75.5403V72.9066V72.9042ZM41.3783 78.1266L38.8441 76.8832L41.3783 76.2887V78.1242V78.1266ZM32.6554 67.3408L34.2257 66.9737L35.7959 66.6066V70.2042L33.4986 70.7419L32.7407 70.9195L32.6578 70.8792V67.3432L32.6554 67.3408ZM32.6554 74.7729V71.2534L32.7028 71.2416L35.7936 72.7526V75.7298L37.937 76.7813L37.2454 76.9448L37.1436 76.9684L34.5312 75.6919L32.6554 74.7753V74.7729ZM45.1299 75.4124L50.6507 74.1169L45.2436 71.4737L50.627 70.2113L45.1322 67.5255V66.5782L35.7959 62V65.2684L32.3499 63.5797V67.0992L26.8599 68.3853L32.267 71.0308L26.8835 72.2932L32.3499 74.9671V77.3119L41.6862 81.8924V78.624L45.1322 80.315V75.4171L45.1299 75.4124Z" fill="#0067FF"/>
</g>
<defs>
<clipPath id="clip0_1303_613">
<rect width="154" height="150" fill="white"/>
</clipPath>
</defs>
</svg>
