<svg width="46" height="45" viewBox="0 0 46 45" fill="none" xmlns="http://www.w3.org/2000/svg">
<path d="M27.399 12.3375C27.399 12.3375 27.4153 12.386 27.437 12.3914L37.7995 5.84256C38.0924 5.65407 38.3095 5.38479 38.4234 5.06166L27.7191 0.365451C27.2254 0.150029 26.6774 0.214656 26.2543 0.543175C25.7931 0.898621 25.5652 1.49642 25.6683 2.10499L27.399 12.3375Z" fill="white"/>
<path d="M18.8703 31.7255C18.8595 31.6662 18.8215 31.6124 18.7727 31.5908C18.7564 31.5855 18.7401 31.5801 18.7239 31.5801C18.7022 31.5801 18.6859 31.5855 18.6642 31.5962L8.45361 38.0589C8.17149 38.2366 7.9599 38.4951 7.84055 38.8075C7.73746 39.0768 7.86767 39.3945 8.12267 39.5076L18.6154 44.1069C19.1036 44.3223 19.657 44.2577 20.0802 43.9292C20.5414 43.5737 20.7692 42.9759 20.6661 42.3727L18.8649 31.7201L18.8703 31.7255Z" fill="white"/>
<path d="M42.4707 31.7472L42.4328 31.731L28.9724 25.8338C28.7825 25.753 28.5818 25.71 28.3864 25.71C28.1152 25.71 27.8493 25.7854 27.6215 25.9308L21.762 29.6414C21.4799 29.8191 21.3334 30.1692 21.3931 30.5193L23.4331 42.5829C23.5253 43.1376 23.8779 43.6008 24.3717 43.8162C24.822 44.0155 25.3211 43.9778 25.728 43.7193L42.5684 33.0559C42.7963 32.9105 42.9156 32.6681 42.8939 32.3773C42.8722 32.0972 42.7149 31.8549 42.4707 31.7418V31.7472Z" fill="white"/>
<path d="M18.2952 28.3326L17.2102 21.8969C17.1179 21.3422 16.7653 20.879 16.2662 20.6636L2.57249 14.6587C2.11676 14.4594 1.61762 14.4971 1.20529 14.761C0.765837 15.0465 0.505419 15.5312 0.494568 16.0697L3.7498 35.3392C3.84203 35.894 4.19468 36.3571 4.68839 36.5725C5.13869 36.7718 5.63783 36.7341 6.04473 36.4756L18.062 28.8658C18.2356 28.7581 18.3224 28.5481 18.2844 28.3273L18.2952 28.3326Z" fill="white"/>
<path d="M26.4442 22.3712L25.5761 17.2442C25.5652 17.1634 25.5164 17.0987 25.4513 17.0718C25.4296 17.061 25.4079 17.0557 25.3808 17.0557C25.3537 17.0557 25.3265 17.0664 25.294 17.0826L20.5902 20.0608C20.0585 20.4001 19.7818 21.041 19.8957 21.698L20.7638 26.8251C20.7746 26.9058 20.8235 26.9705 20.8886 26.9974C20.9428 27.0189 20.9916 27.0189 21.0405 26.9866L25.7443 24.0084C26.276 23.6691 26.5527 23.0282 26.4387 22.3712H26.4442Z" fill="white"/>
<path d="M3.78776 12.1652H3.79861L17.2807 18.0839C17.7201 18.2778 18.2356 18.2401 18.637 17.987L24.7135 14.1363C24.8816 14.0286 24.9685 13.824 24.9305 13.6085L22.9122 1.67953C22.82 1.12482 22.4674 0.661659 21.9736 0.446237C21.5233 0.246971 21.0296 0.28467 20.6173 0.543177L3.71723 11.2389C3.55989 11.3412 3.47851 11.5136 3.48936 11.7182C3.50564 11.9175 3.61415 12.0898 3.78776 12.1652Z" fill="white"/>
<path d="M45.8128 27.9023L42.5358 8.51431C42.4056 8.05115 42.0421 7.64185 41.5755 7.46413C41.4073 7.3995 41.2283 7.36719 41.0547 7.36719C40.7889 7.36719 40.523 7.44259 40.2897 7.59338L28.7662 14.8908C28.2725 15.2032 28.0175 15.801 28.1206 16.4149L29.1297 22.4037C29.2219 22.9584 29.5746 23.4215 30.0737 23.6423L43.762 29.6472C44.2502 29.8627 44.8036 29.798 45.2268 29.4695C45.688 29.1141 45.9158 28.5163 45.8128 27.9077V27.9023Z" fill="white"/>
</svg>
