<svg xmlns="http://www.w3.org/2000/svg" width="92" height="92" viewBox="0 0 92 92" fill="none">
  <g filter="url(#filter0_bd_409_3673)">
    <rect x="30.7369" y="30.9269" width="30.46" height="30.4626" rx="15.23" fill="white" fill-opacity="0.15" shape-rendering="crispEdges"/>
  </g>
  <path fill-rule="evenodd" clip-rule="evenodd" d="M47.569 46.8697L47.7497 46.689C47.8195 46.6193 47.8748 46.5366 47.9126 46.4455C47.9503 46.3545 47.9697 46.2568 47.9697 46.1583C47.9697 46.0597 47.9503 45.9621 47.9126 45.871C47.8748 45.78 47.8195 45.6972 47.7497 45.6276L47.5347 45.4125L47.5318 45.4082L42.0606 39.9379C41.9199 39.7971 41.8408 39.6062 41.8408 39.4072C41.8408 39.2081 41.9199 39.0172 42.0606 38.8765C42.2014 38.7357 42.3923 38.6566 42.5914 38.6566C42.7904 38.6566 42.9813 38.7357 43.1221 38.8765L49.8732 45.6276C49.9429 45.6972 49.9982 45.78 50.036 45.871C50.0737 45.9621 50.0932 46.0597 50.0932 46.1583C50.0932 46.2568 50.0737 46.3545 50.036 46.4455C49.9982 46.5366 49.9429 46.6193 49.8732 46.689L43.1221 53.4401C42.9813 53.5808 42.7904 53.6599 42.5914 53.6599C42.3923 53.6599 42.2014 53.5808 42.0606 53.4401C41.9199 53.2993 41.8408 53.1084 41.8408 52.9094C41.8408 52.7103 41.9199 52.5194 42.0606 52.3786L47.5318 46.9084C47.5318 46.9084 47.5495 46.8923 47.569 46.8697Z" fill="white"/>
  <path d="M47.7497 46.689L47.3964 46.3352L47.3962 46.3354L47.7497 46.689ZM47.569 46.8697L47.2155 46.5161L47.2026 46.529L47.1907 46.5428L47.569 46.8697ZM47.9126 46.4455L48.3744 46.637L48.3744 46.637L47.9126 46.4455ZM47.7497 45.6276L47.3962 45.9811L47.3964 45.9813L47.7497 45.6276ZM47.5347 45.4125L47.1161 45.686L47.1445 45.7294L47.1811 45.7661L47.5347 45.4125ZM47.5318 45.4082L47.9504 45.1347L47.922 45.0912L47.8854 45.0546L47.5318 45.4082ZM42.0606 39.9379L41.7071 40.2914L41.7071 40.2915L42.0606 39.9379ZM42.0606 38.8765L42.4142 39.23L42.0606 38.8765ZM43.1221 38.8765L43.4756 38.5229L43.4756 38.5229L43.1221 38.8765ZM49.8732 45.6276L49.5196 45.9811L49.5198 45.9813L49.8732 45.6276ZM50.036 46.4455L50.4979 46.637V46.637L50.036 46.4455ZM49.8732 46.689L49.5198 46.3352L49.5196 46.3354L49.8732 46.689ZM43.1221 53.4401L42.7685 53.0865H42.7685L43.1221 53.4401ZM42.0606 53.4401L42.4142 53.0865L42.4142 53.0865L42.0606 53.4401ZM42.0606 52.3786L41.7071 52.0251L41.7071 52.0251L42.0606 52.3786ZM47.5318 46.9084L47.195 46.5389L47.1865 46.5467L47.1783 46.5548L47.5318 46.9084ZM47.3962 46.3354L47.2155 46.5161L47.9226 47.2232L48.1033 47.0425L47.3962 46.3354ZM47.4507 46.2541C47.4381 46.2844 47.4196 46.312 47.3964 46.3352L48.1031 47.0427C48.2193 46.9266 48.3115 46.7888 48.3744 46.637L47.4507 46.2541ZM47.4697 46.1583C47.4697 46.1911 47.4633 46.2237 47.4507 46.2541L48.3744 46.637C48.4374 46.4852 48.4697 46.3226 48.4697 46.1583H47.4697ZM47.4507 46.0625C47.4633 46.0929 47.4697 46.1254 47.4697 46.1583H48.4697C48.4697 45.994 48.4374 45.8313 48.3744 45.6795L47.4507 46.0625ZM47.3964 45.9813C47.4196 46.0045 47.4381 46.0321 47.4507 46.0625L48.3744 45.6795C48.3115 45.5278 48.2193 45.3899 48.1031 45.2738L47.3964 45.9813ZM47.1811 45.7661L47.3962 45.9811L48.1033 45.274L47.8882 45.0589L47.1811 45.7661ZM47.9533 45.139L47.9504 45.1347L47.1133 45.6816L47.1161 45.686L47.9533 45.139ZM47.8854 45.0546L42.4142 39.5843L41.7071 40.2915L47.1783 45.7617L47.8854 45.0546ZM42.4142 39.5843C42.3672 39.5374 42.3408 39.4736 42.3408 39.4072H41.3408C41.3408 39.7388 41.4726 40.0569 41.7071 40.2914L42.4142 39.5843ZM42.3408 39.4072C42.3408 39.3407 42.3672 39.277 42.4142 39.23L41.7071 38.5229C41.4726 38.7574 41.3408 39.0755 41.3408 39.4072H42.3408ZM42.4142 39.23C42.4612 39.183 42.5249 39.1566 42.5914 39.1566V38.1566C42.2597 38.1566 41.9416 38.2884 41.7071 38.5229L42.4142 39.23ZM42.5914 39.1566C42.6578 39.1566 42.7215 39.183 42.7685 39.23L43.4756 38.5229C43.2411 38.2884 42.923 38.1566 42.5914 38.1566V39.1566ZM42.7685 39.23L49.5196 45.9811L50.2267 45.274L43.4756 38.5229L42.7685 39.23ZM49.5198 45.9813C49.543 46.0045 49.5615 46.0321 49.5741 46.0625L50.4979 45.6795C50.4349 45.5278 50.3427 45.3899 50.2265 45.2738L49.5198 45.9813ZM49.5741 46.0625C49.5867 46.0929 49.5932 46.1254 49.5932 46.1583H50.5932C50.5932 45.994 50.5608 45.8313 50.4979 45.6795L49.5741 46.0625ZM49.5932 46.1583C49.5932 46.1911 49.5867 46.2237 49.5741 46.2541L50.4979 46.637C50.5608 46.4852 50.5932 46.3226 50.5932 46.1583H49.5932ZM49.5741 46.2541C49.5615 46.2844 49.543 46.312 49.5198 46.3352L50.2265 47.0427C50.3427 46.9266 50.4349 46.7888 50.4979 46.637L49.5741 46.2541ZM49.5196 46.3354L42.7685 53.0865L43.4756 53.7936L50.2267 47.0425L49.5196 46.3354ZM42.7685 53.0865C42.7215 53.1335 42.6578 53.1599 42.5914 53.1599V54.1599C42.923 54.1599 43.2411 54.0281 43.4756 53.7936L42.7685 53.0865ZM42.5914 53.1599C42.5249 53.1599 42.4612 53.1335 42.4142 53.0865L41.7071 53.7936C41.9416 54.0281 42.2597 54.1599 42.5914 54.1599V53.1599ZM42.4142 53.0865C42.3672 53.0395 42.3408 52.9758 42.3408 52.9094H41.3408C41.3408 53.241 41.4726 53.5591 41.7071 53.7936L42.4142 53.0865ZM42.3408 52.9094C42.3408 52.8429 42.3672 52.7792 42.4142 52.7322L41.7071 52.0251C41.4726 52.2596 41.3408 52.5777 41.3408 52.9094H42.3408ZM42.4142 52.7322L47.8854 47.262L47.1783 46.5548L41.7071 52.0251L42.4142 52.7322ZM47.5318 46.9084C47.8687 47.2779 47.8687 47.2779 47.8687 47.2779C47.8687 47.2778 47.8688 47.2778 47.8688 47.2778C47.8688 47.2778 47.8689 47.2777 47.8689 47.2777C47.869 47.2776 47.869 47.2776 47.8691 47.2775C47.8693 47.2774 47.8694 47.2772 47.8696 47.2771C47.8699 47.2768 47.8703 47.2764 47.8706 47.2761C47.8714 47.2754 47.8722 47.2747 47.8731 47.2739C47.8748 47.2722 47.8769 47.2703 47.8792 47.2681C47.8839 47.2636 47.8898 47.258 47.8965 47.2512C47.9096 47.2381 47.9277 47.2194 47.9474 47.1966L47.1907 46.5428C47.1909 46.5426 47.1903 46.5432 47.1897 46.5438C47.1896 46.5439 47.1898 46.5437 47.1906 46.543C47.1909 46.5426 47.1915 46.5421 47.1922 46.5414C47.1926 46.5411 47.193 46.5407 47.1934 46.5403C47.1937 46.5401 47.1939 46.5399 47.1942 46.5396C47.1943 46.5395 47.1944 46.5394 47.1946 46.5393C47.1946 46.5392 47.1947 46.5391 47.1948 46.5391C47.1948 46.539 47.1949 46.539 47.1949 46.539C47.1949 46.539 47.1949 46.5389 47.1949 46.5389C47.195 46.5389 47.195 46.5389 47.5318 46.9084Z" fill="white"/>
  <defs>
    <filter id="filter0_bd_409_3673" x="-29.2631" y="-29.0731" width="150.46" height="150.463" filterUnits="userSpaceOnUse" color-interpolation-filters="sRGB">
      <feFlood flood-opacity="0" result="BackgroundImageFix"/>
      <feGaussianBlur in="BackgroundImageFix" stdDeviation="30"/>
      <feComposite in2="SourceAlpha" operator="in" result="effect1_backgroundBlur_409_3673"/>
      <feColorMatrix in="SourceAlpha" type="matrix" values="0 0 0 0 0 0 0 0 0 0 0 0 0 0 0 0 0 0 127 0" result="hardAlpha"/>
      <feOffset/>
      <feGaussianBlur stdDeviation="15"/>
      <feComposite in2="hardAlpha" operator="out"/>
      <feColorMatrix type="matrix" values="0 0 0 0 0 0 0 0 0 0 0 0 0 0 0 0 0 0 0.25 0"/>
      <feBlend mode="normal" in2="effect1_backgroundBlur_409_3673" result="effect2_dropShadow_409_3673"/>
      <feBlend mode="normal" in="SourceGraphic" in2="effect2_dropShadow_409_3673" result="shape"/>
    </filter>
  </defs>
</svg>