<svg xmlns="http://www.w3.org/2000/svg" width="91" height="91" viewBox="0 0 91 91" fill="none">
  <g filter="url(#filter0_bdi_419_4931)">
    <rect x="60.5498" y="60.942" width="30.46" height="30.4626" rx="15.23" transform="rotate(180 60.5498 60.942)" fill="white" fill-opacity="0.15" shape-rendering="crispEdges"/>
  </g>
  <path d="M51.9929 51.4114C52.0567 51.4753 52.1074 51.5511 52.142 51.6346C52.1765 51.718 52.1943 51.8075 52.1943 51.8978C52.1943 51.9881 52.1765 52.0776 52.142 52.161C52.1074 52.2445 52.0567 52.3203 51.9929 52.3842C51.929 52.448 51.8532 52.4987 51.7697 52.5333C51.6863 52.5678 51.5968 52.5856 51.5065 52.5856C51.4162 52.5856 51.3267 52.5678 51.2433 52.5333C51.1598 52.4987 51.084 52.448 51.0201 52.3842L45.3193 46.6825L39.6186 52.3842C39.4896 52.5132 39.3146 52.5856 39.1322 52.5856C38.9498 52.5856 38.7748 52.5132 38.6458 52.3842C38.5168 52.2552 38.4443 52.0802 38.4443 51.8978C38.4443 51.7154 38.5168 51.5404 38.6458 51.4114L44.3474 45.7106L38.6458 40.0099C38.5168 39.8809 38.4443 39.7059 38.4443 39.5235C38.4443 39.341 38.5168 39.1661 38.6458 39.0371C38.7748 38.9081 38.9498 38.8356 39.1322 38.8356C39.3146 38.8356 39.4896 38.9081 39.6186 39.0371L45.3193 44.7387L51.0201 39.0371C51.1491 38.9081 51.3241 38.8356 51.5065 38.8356C51.6889 38.8356 51.8639 38.9081 51.9929 39.0371C52.1219 39.1661 52.1943 39.341 52.1943 39.5235C52.1943 39.7059 52.1219 39.8809 51.9929 40.0099L46.2912 45.7106L51.9929 51.4114Z" fill="white"/>
  <defs>
    <filter id="filter0_bdi_419_4931" x="-29.9102" y="-29.5207" width="150.46" height="150.463" filterUnits="userSpaceOnUse" color-interpolation-filters="sRGB">
      <feFlood flood-opacity="0" result="BackgroundImageFix"/>
      <feGaussianBlur in="BackgroundImageFix" stdDeviation="30"/>
      <feComposite in2="SourceAlpha" operator="in" result="effect1_backgroundBlur_419_4931"/>
      <feColorMatrix in="SourceAlpha" type="matrix" values="0 0 0 0 0 0 0 0 0 0 0 0 0 0 0 0 0 0 127 0" result="hardAlpha"/>
      <feOffset/>
      <feGaussianBlur stdDeviation="15"/>
      <feComposite in2="hardAlpha" operator="out"/>
      <feColorMatrix type="matrix" values="0 0 0 0 0 0 0 0 0 0 0 0 0 0 0 0 0 0 0.25 0"/>
      <feBlend mode="normal" in2="effect1_backgroundBlur_419_4931" result="effect2_dropShadow_419_4931"/>
      <feBlend mode="normal" in="SourceGraphic" in2="effect2_dropShadow_419_4931" result="shape"/>
      <feColorMatrix in="SourceAlpha" type="matrix" values="0 0 0 0 0 0 0 0 0 0 0 0 0 0 0 0 0 0 127 0" result="hardAlpha"/>
      <feOffset dx="2" dy="2"/>
      <feGaussianBlur stdDeviation="2"/>
      <feComposite in2="hardAlpha" operator="arithmetic" k2="-1" k3="1"/>
      <feColorMatrix type="matrix" values="0 0 0 0 0.533333 0 0 0 0 0.533333 0 0 0 0 0.533333 0 0 0 0.25 0"/>
      <feBlend mode="normal" in2="shape" result="effect3_innerShadow_419_4931"/>
    </filter>
  </defs>
</svg>