<svg xmlns="http://www.w3.org/2000/svg" width="238" height="76" viewBox="0 0 238 76" fill="none">
  <g clip-path="url(#clip0_441_1723)">
    <path d="M46.7322 21.3274C46.7322 21.3274 46.7601 21.4101 46.7974 21.4192L64.5938 10.2565C65.097 9.93516 65.4697 9.47616 65.6653 8.92536L47.2819 0.920469C46.434 0.553272 45.4929 0.663431 44.7662 1.22341C43.9742 1.82928 43.5828 2.84825 43.7599 3.88559L46.7322 21.3274Z" fill="white"/>
    <path d="M32.0851 54.3748C32.0664 54.2738 32.0012 54.182 31.9173 54.1453C31.8894 54.1361 31.8614 54.127 31.8335 54.127C31.7962 54.127 31.7683 54.1361 31.731 54.1545L14.1955 65.1704C13.7109 65.4733 13.3476 65.914 13.1426 66.4464C12.9655 66.9054 13.1892 67.447 13.6271 67.6398L31.6471 75.4795C32.4857 75.8467 33.4361 75.7365 34.1629 75.1765C34.9549 74.5707 35.3462 73.5517 35.1692 72.5235L32.0757 54.3656L32.0851 54.3748Z" fill="white"/>
    <path d="M72.6162 54.4118L72.551 54.3843L49.4342 44.3322C49.1081 44.1945 48.7634 44.1211 48.4279 44.1211C47.9621 44.1211 47.5055 44.2496 47.1142 44.4975L37.0513 50.8224C36.5668 51.1254 36.3152 51.7221 36.4177 52.3188L39.9211 72.8818C40.0795 73.8273 40.6851 74.6168 41.533 74.984C42.3063 75.3237 43.1636 75.2594 43.8624 74.8188L72.7839 56.6425C73.1752 56.3947 73.3802 55.9816 73.3429 55.4858C73.3057 55.0085 73.0355 54.5954 72.6162 54.4026V54.4118Z" fill="white"/>
    <path d="M31.0974 48.5918L29.2339 37.6218C29.0755 36.6762 28.4699 35.8868 27.6127 35.5196L4.09528 25.284C3.31261 24.9443 2.4554 25.0086 1.74727 25.4584C0.992547 25.9449 0.545307 26.7711 0.526672 27.6891L6.11717 60.5349C6.27557 61.4804 6.88121 62.2699 7.7291 62.6371C8.50245 62.9767 9.35966 62.9125 10.0585 62.4718L30.6967 49.5006C30.9949 49.317 31.144 48.959 31.0788 48.5826L31.0974 48.5918Z" fill="white"/>
    <path d="M45.0923 38.4297L43.6015 29.6904C43.5828 29.5527 43.499 29.4426 43.3872 29.3967C43.3499 29.3783 43.3126 29.3691 43.266 29.3691C43.2195 29.3691 43.1729 29.3875 43.117 29.415L35.0387 34.4915C34.1256 35.0699 33.6504 36.1623 33.846 37.2822L35.3368 46.0215C35.3555 46.1592 35.4393 46.2694 35.5511 46.3153C35.6443 46.352 35.7282 46.352 35.812 46.2969L43.8903 41.2204C44.8034 40.6421 45.2786 39.5497 45.083 38.4297H45.0923Z" fill="white"/>
    <path d="M6.18239 21.0336H6.20102L29.355 31.1224C30.1097 31.4528 30.9949 31.3886 31.6844 30.9571L42.12 24.3935C42.4088 24.2099 42.5579 23.861 42.4927 23.4938L39.0266 3.16031C38.8682 2.21478 38.2626 1.4253 37.4147 1.0581C36.6413 0.718448 35.7934 0.782707 35.0853 1.22334L6.06126 19.4547C5.79105 19.6291 5.65129 19.9229 5.66992 20.2717C5.69788 20.6113 5.88423 20.9051 6.18239 21.0336Z" fill="white"/>
    <path d="M78.3558 47.8576L72.728 14.8098C72.5044 14.0203 71.8801 13.3227 71.0788 13.0197C70.79 12.9096 70.4825 12.8545 70.1843 12.8545C69.7278 12.8545 69.2712 12.983 68.8706 13.24L49.0802 25.6789C48.2323 26.2113 47.7944 27.2303 47.9714 28.2768L49.7045 38.4848C49.8629 39.4304 50.4685 40.2199 51.3257 40.5962L74.8338 50.8318C75.6723 51.199 76.6227 51.0889 77.3495 50.5289C78.1415 49.923 78.5328 48.9041 78.3558 47.8667V47.8576Z" fill="white"/>
    <path d="M102.115 34.2164C102.246 34.501 102.497 34.7672 102.852 35.0059C103.206 35.2537 103.699 35.474 104.324 35.6852C104.948 35.8963 105.74 36.1074 106.7 36.3369C107.753 36.6032 108.694 36.8969 109.504 37.2182C110.315 37.5395 110.995 37.9342 111.535 38.3932C112.076 38.8522 112.486 39.3939 112.756 40.0089C113.036 40.624 113.175 41.3492 113.175 42.1754C113.175 43.1209 112.998 43.9563 112.644 44.6999C112.29 45.4342 111.806 46.0585 111.172 46.5726C110.538 47.0866 109.793 47.4722 108.908 47.7292C108.023 47.9955 107.063 48.124 106.01 48.124C104.454 48.124 102.973 47.8669 101.556 47.3437C100.14 46.8296 98.8264 46.0309 97.6151 44.9477L99.7395 42.46C100.718 43.2953 101.705 43.9287 102.702 44.3694C103.699 44.81 104.827 45.0395 106.094 45.0395C107.184 45.0395 108.051 44.81 108.694 44.3602C109.336 43.9104 109.653 43.2953 109.653 42.5242C109.653 42.1662 109.588 41.8449 109.467 41.5603C109.346 41.2757 109.113 41.0187 108.777 40.78C108.442 40.5414 107.976 40.321 107.398 40.1099C106.811 39.8988 106.047 39.6876 105.106 39.4581C104.026 39.2103 103.075 38.9349 102.237 38.6411C101.398 38.3382 100.699 37.9618 100.131 37.512C99.5624 37.0622 99.1338 36.5114 98.8357 35.8688C98.5375 35.2262 98.3884 34.4459 98.3884 33.5187C98.3884 32.6466 98.5561 31.8663 98.9009 31.1503C99.2456 30.4342 99.7115 29.8376 100.308 29.3235C100.904 28.8094 101.631 28.4238 102.469 28.1484C103.308 27.873 104.231 27.7354 105.227 27.7354C106.7 27.7354 108.032 27.9465 109.206 28.3688C110.38 28.791 111.489 29.4153 112.523 30.2231L110.622 32.8578C109.7 32.1968 108.796 31.6919 107.892 31.3431C106.988 30.9942 106.085 30.8198 105.162 30.8198C104.128 30.8198 103.327 31.0493 102.749 31.5175C102.171 31.9765 101.882 32.5456 101.882 33.2066C101.882 33.6013 101.948 33.941 102.087 34.2256L102.115 34.2164Z" fill="white"/>
    <path d="M131.671 43.3866C131.261 44.3321 130.692 45.1583 129.975 45.8652C129.257 46.572 128.4 47.132 127.403 47.5451C126.406 47.9582 125.325 48.1694 124.151 48.1694C122.977 48.1694 121.934 47.9674 120.946 47.5635C119.958 47.1596 119.111 46.5996 118.384 45.8927C117.666 45.1859 117.107 44.3597 116.707 43.4325C116.306 42.4962 116.101 41.4955 116.101 40.4123C116.101 39.3291 116.306 38.3193 116.716 37.3646C117.126 36.4099 117.694 35.5837 118.412 34.8768C119.129 34.17 119.986 33.61 120.974 33.1877C121.962 32.7746 123.043 32.5635 124.207 32.5635C125.372 32.5635 126.453 32.7654 127.44 33.1694C128.428 33.5733 129.276 34.1332 130.003 34.8401C130.72 35.547 131.279 36.3731 131.68 37.3187C132.081 38.2642 132.286 39.274 132.286 40.3481C132.286 41.4221 132.081 42.4319 131.671 43.3774V43.3866ZM128.437 38.5488C128.204 37.9613 127.888 37.4472 127.478 37.0066C127.068 36.5659 126.583 36.2171 126.024 35.9601C125.465 35.703 124.841 35.5745 124.151 35.5745C123.462 35.5745 122.838 35.703 122.279 35.9601C121.719 36.2171 121.235 36.5567 120.834 36.9974C120.434 37.4288 120.126 37.9337 119.921 38.5121C119.716 39.0904 119.604 39.7055 119.604 40.3664C119.604 41.0274 119.716 41.6516 119.949 42.2483C120.173 42.845 120.499 43.3591 120.909 43.7905C121.319 44.222 121.803 44.5708 122.362 44.8279C122.921 45.0849 123.536 45.2134 124.207 45.2134C124.915 45.2134 125.549 45.0849 126.108 44.8279C126.667 44.5708 127.152 44.2312 127.552 43.7905C127.953 43.3591 128.26 42.8542 128.465 42.2758C128.67 41.6975 128.782 41.0824 128.782 40.4215C128.782 39.7605 128.67 39.1363 128.437 38.5488Z" fill="white"/>
    <path d="M144.081 32.9953V35.8227H140.112V47.83H136.609V35.8227H134.68V32.9586H136.609V31.8845C136.609 30.2229 137.019 28.9928 137.829 28.185C138.64 27.3863 139.795 26.9824 141.296 26.9824C141.911 26.9824 142.432 27.0191 142.88 27.0926C143.317 27.166 143.737 27.267 144.119 27.3772V30.2688C143.774 30.1587 143.448 30.0669 143.131 30.0026C142.814 29.9384 142.47 29.9016 142.078 29.9016C140.736 29.9016 140.066 30.6544 140.066 32.1691V32.9861H144.091L144.081 32.9953Z" fill="white"/>
    <path d="M150.855 43.157C150.855 43.818 151.014 44.2953 151.34 44.5891C151.666 44.8828 152.122 45.0297 152.719 45.0297C153.464 45.0297 154.182 44.8553 154.871 44.5156V47.3155C154.433 47.5634 153.958 47.747 153.464 47.8847C152.961 48.0132 152.393 48.0866 151.74 48.0866C151.088 48.0866 150.52 48.0132 149.979 47.8571C149.439 47.7103 148.973 47.4624 148.573 47.1227C148.181 46.7831 147.874 46.3333 147.659 45.7733C147.445 45.2133 147.343 44.5156 147.343 43.6895V35.8039H145.414V32.8847H147.343V28.7812H150.846V32.8847H154.927V35.8039H150.846V43.157H150.855Z" fill="white"/>
    <path d="M161.98 34.2164C162.111 34.501 162.362 34.7672 162.716 35.0059C163.071 35.2537 163.564 35.474 164.189 35.6852C164.813 35.8963 165.605 36.1074 166.565 36.3369C167.617 36.6032 168.559 36.8969 169.369 37.2182C170.18 37.5395 170.86 37.9342 171.4 38.3932C171.941 38.8522 172.351 39.3939 172.621 40.0089C172.901 40.624 173.04 41.3492 173.04 42.1754C173.04 43.1209 172.863 43.9563 172.509 44.6999C172.155 45.4342 171.671 46.0585 171.037 46.5726C170.403 47.0866 169.658 47.4722 168.773 47.7292C167.888 47.9955 166.928 48.124 165.875 48.124C164.319 48.124 162.838 47.8669 161.421 47.3437C160.005 46.8296 158.691 46.0309 157.48 44.9477L159.604 42.46C160.583 43.2953 161.57 43.9287 162.567 44.3694C163.564 44.81 164.692 45.0395 165.959 45.0395C167.049 45.0395 167.916 44.81 168.559 44.3602C169.201 43.9104 169.518 43.2953 169.518 42.5242C169.518 42.1662 169.453 41.8449 169.332 41.5603C169.211 41.2757 168.978 41.0187 168.642 40.78C168.307 40.5414 167.841 40.321 167.263 40.1099C166.676 39.8988 165.912 39.6876 164.971 39.4581C163.89 39.2103 162.94 38.9349 162.102 38.6411C161.263 38.3382 160.564 37.9618 159.996 37.512C159.427 37.0622 158.999 36.5114 158.701 35.8688C158.402 35.2262 158.253 34.4459 158.253 33.5187C158.253 32.6466 158.421 31.8663 158.766 31.1503C159.111 30.4342 159.576 29.8376 160.173 29.3235C160.769 28.8094 161.496 28.4238 162.334 28.1484C163.173 27.873 164.095 27.7354 165.092 27.7354C166.565 27.7354 167.897 27.9465 169.071 28.3688C170.245 28.791 171.354 29.4153 172.388 30.2231L170.487 32.8578C169.565 32.1968 168.661 31.6919 167.757 31.3431C166.853 30.9942 165.95 30.8198 165.027 30.8198C163.993 30.8198 163.192 31.0493 162.614 31.5175C162.036 31.9765 161.747 32.5456 161.747 33.2066C161.747 33.6013 161.813 33.941 161.952 34.2256L161.98 34.2164Z" fill="white"/>
    <path d="M180.895 43.157C180.895 43.818 181.053 44.2953 181.379 44.5891C181.706 44.8828 182.162 45.0297 182.758 45.0297C183.504 45.0297 184.221 44.8553 184.911 44.5156V47.3155C184.473 47.5634 183.998 47.747 183.504 47.8847C183.001 48.0132 182.432 48.0866 181.78 48.0866C181.128 48.0866 180.559 48.0132 180.019 47.8571C179.479 47.7103 179.013 47.4624 178.612 47.1227C178.221 46.7831 177.913 46.3333 177.699 45.7733C177.485 45.2133 177.382 44.5156 177.382 43.6895V35.8039H175.453V32.8847H177.382V28.7812H180.886V32.8847H184.967V35.8039H180.886V43.157H180.895Z" fill="white"/>
    <path d="M202.744 43.3866C202.334 44.3321 201.766 45.1583 201.049 45.8652C200.331 46.572 199.474 47.132 198.477 47.5451C197.48 47.9582 196.399 48.1694 195.225 48.1694C194.051 48.1694 193.008 47.9674 192.02 47.5635C191.032 47.1596 190.184 46.5996 189.458 45.8927C188.74 45.1859 188.181 44.3597 187.781 43.4325C187.38 42.4962 187.175 41.4955 187.175 40.4123C187.175 39.3291 187.38 38.3193 187.79 37.3646C188.2 36.4099 188.768 35.5837 189.486 34.8768C190.203 34.17 191.06 33.61 192.048 33.1877C193.036 32.7746 194.116 32.5635 195.281 32.5635C196.446 32.5635 197.527 32.7654 198.514 33.1694C199.502 33.5733 200.35 34.1332 201.077 34.8401C201.794 35.547 202.353 36.3731 202.754 37.3187C203.154 38.2642 203.359 39.274 203.359 40.3481C203.359 41.4221 203.154 42.4319 202.744 43.3774V43.3866ZM199.511 38.5488C199.278 37.9613 198.962 37.4472 198.552 37.0066C198.142 36.5659 197.657 36.2171 197.098 35.9601C196.539 35.703 195.915 35.5745 195.225 35.5745C194.536 35.5745 193.911 35.703 193.352 35.9601C192.793 36.2171 192.309 36.5567 191.908 36.9974C191.508 37.4288 191.2 37.9337 190.995 38.5121C190.79 39.0904 190.678 39.7055 190.678 40.3664C190.678 41.0274 190.79 41.6516 191.023 42.2483C191.247 42.845 191.573 43.3591 191.983 43.7905C192.393 44.222 192.877 44.5708 193.436 44.8279C193.995 45.0849 194.61 45.2134 195.281 45.2134C195.989 45.2134 196.623 45.0849 197.182 44.8279C197.741 44.5708 198.225 44.2312 198.626 43.7905C199.027 43.3591 199.334 42.8542 199.539 42.2758C199.744 41.6975 199.856 41.0824 199.856 40.4215C199.856 39.7605 199.744 39.1363 199.511 38.5488Z" fill="white"/>
    <path d="M217.597 47.3984C216.637 47.9217 215.426 48.1787 213.944 48.1787C212.817 48.1787 211.773 47.9768 210.813 47.5729C209.854 47.1689 209.024 46.609 208.316 45.9021C207.608 45.1952 207.058 44.3691 206.667 43.4419C206.276 42.5055 206.071 41.5049 206.071 40.4217C206.071 39.3385 206.266 38.3378 206.667 37.3923C207.068 36.4468 207.618 35.6206 208.316 34.9046C209.024 34.1885 209.854 33.6194 210.823 33.2063C211.792 32.7932 212.845 32.582 213.972 32.582C215.407 32.582 216.6 32.8207 217.55 33.2889C218.5 33.7571 219.33 34.3813 220.038 35.1616L217.885 37.4566C217.345 36.9058 216.777 36.4651 216.18 36.1071C215.575 35.7583 214.829 35.5839 213.953 35.5839C213.32 35.5839 212.733 35.7124 212.202 35.9694C211.661 36.2265 211.205 36.5661 210.823 37.0068C210.441 37.4382 210.133 37.9431 209.919 38.5214C209.695 39.0998 209.593 39.7148 209.593 40.3758C209.593 41.0367 209.705 41.6885 209.919 42.276C210.143 42.8635 210.45 43.3684 210.851 43.8091C211.251 44.2405 211.736 44.5894 212.286 44.8464C212.845 45.1035 213.45 45.232 214.121 45.232C214.941 45.232 215.668 45.0576 216.292 44.7087C216.916 44.3599 217.503 43.9101 218.062 43.3684L220.159 45.4064C219.413 46.2418 218.556 46.9119 217.597 47.4352V47.3984Z" fill="white"/>
    <path d="M237.536 47.8388H233.511L228.936 41.3853L226.812 43.5702V47.848H223.308V27.1748H226.812V39.5218L233.101 32.8939H237.322L231.284 38.9802L237.517 47.8388H237.536Z" fill="white"/>
  </g>
  <defs>
    <clipPath id="clip0_441_1723">
      <rect width="237" height="75" fill="white" transform="translate(0.536011 0.708984)"/>
    </clipPath>
  </defs>
</svg>