<svg width="115" height="102" viewBox="0 0 115 102" fill="none" xmlns="http://www.w3.org/2000/svg">
<path d="M102.533 0.510864H41.0363C38.2838 0.510864 36.0153 2.80047 36.0153 5.57845V11.3392L70.6737 22.1676L107.554 11.3392V5.57845C107.554 2.80047 105.285 0.510864 102.533 0.510864Z" fill="#0364B8"/>
<path d="M113.46 56.123C113.985 54.4636 114.401 52.7674 114.714 51.0502C114.714 50.1942 114.261 49.396 113.522 48.9654L113.475 48.9391H113.46L74.6906 26.6418C74.5241 26.5315 74.3524 26.4317 74.1703 26.3424C72.6666 25.5915 70.9027 25.5915 69.4042 26.3424C69.2273 26.4317 69.0556 26.5315 68.8839 26.6418L30.1149 48.9286H30.0993L30.0525 48.9601C29.3188 49.3908 28.861 50.1837 28.861 51.0449C29.1732 52.7621 29.5894 54.4531 30.1149 56.1178L71.2201 86.4603L113.454 56.1178L113.46 56.123Z" fill="#0A2767"/>
<path d="M86.096 11.3392H61.0583L53.8311 22.1676L61.0583 32.9959L86.096 54.6579H107.559V32.9959L86.096 11.334V11.3392Z" fill="#28A8EA"/>
<path fill-rule="evenodd" clip-rule="evenodd" d="M36.0204 11.3392H61.0581V33.0011H36.0204V11.3392Z" fill="#0078D4"/>
<path fill-rule="evenodd" clip-rule="evenodd" d="M86.0959 11.3392H107.559V33.0011H86.0959V11.3392Z" fill="#50D9FF"/>
<path d="M86.0959 54.6631L61.0581 33.0012H36.0204V54.6631L61.0581 76.3251L99.8011 82.7055L86.0959 54.6631Z" fill="#0364B8"/>
<path fill-rule="evenodd" clip-rule="evenodd" d="M61.0582 33.0012H86.096V54.6631H61.0582V33.0012Z" fill="#0078D4"/>
<path fill-rule="evenodd" clip-rule="evenodd" d="M36.0204 54.6631H61.0581V76.325H36.0204V54.6631Z" fill="#064A8C"/>
<path fill-rule="evenodd" clip-rule="evenodd" d="M86.0959 54.6631H107.559V76.325H86.0959V54.6631Z" fill="#0078D4"/>
<path d="M72.4688 84.3281L30.2814 53.282L32.0505 50.1469C32.0505 50.1469 70.4864 72.2395 71.0692 72.5755C71.5531 72.7751 72.0994 72.7593 72.5729 72.5335C73.1192 72.2237 111.675 50.0419 111.675 50.0419L113.449 53.1769L72.4636 84.3334L72.4688 84.3281Z" fill="black" fill-opacity="0.17"/>
<path d="M113.522 53.135L113.475 53.1612H113.465L74.6957 75.4586C73.1295 76.4774 71.1523 76.6034 69.4717 75.7842L82.974 94.0537L112.497 100.539V100.555C113.886 99.5414 114.713 97.9082 114.713 96.17V51.0449C114.713 51.9009 114.261 52.6991 113.522 53.1297H113.517L113.522 53.135Z" fill="#1490DF"/>
<path d="M114.713 96.1805V93.5181L79.0039 72.9852L74.6957 75.4638C73.1295 76.4826 71.1523 76.6086 69.4717 75.7894L82.974 94.059L112.497 100.544V100.56C113.886 99.5414 114.713 97.9135 114.713 96.1753V96.1805Z" fill="black" fill-opacity="0.17"/>
<path d="M114.531 97.5617L75.3878 75.0542L74.6906 75.4533C73.1244 76.4721 71.1472 76.5981 69.4666 75.7789L82.9688 94.0485L112.492 100.534V100.55C113.491 99.8145 114.214 98.7537 114.531 97.5511V97.5617Z" fill="black" fill-opacity="0.17"/>
<path d="M30.1147 53.1822V53.1455H30.0783L29.969 53.072C29.277 52.6413 28.8556 51.8746 28.8608 51.0502V96.1858C28.8608 99.1528 31.2802 101.595 34.22 101.595H109.344C109.791 101.595 110.233 101.532 110.665 101.416C110.889 101.374 111.108 101.306 111.31 101.201C111.389 101.19 111.461 101.169 111.524 101.127C111.815 101.007 112.091 100.849 112.346 100.66L112.486 100.55L30.1147 53.1822Z" fill="#28A8EA"/>
<path d="M64.6328 82.3432V23.3754C64.6223 20.7392 62.4786 18.5704 59.8666 18.5651H36.1297V45.4837L30.1148 48.9444H30.0992L30.0524 48.9759C29.3135 49.4065 28.8608 50.1994 28.8608 51.0607V87.1744V87.1587H59.8614C62.4734 87.1534 64.6223 84.9846 64.6275 82.3484L64.6328 82.3432Z" fill="black" fill-opacity="0.17"/>
<path d="M61.0582 85.9509V26.9884C61.0478 24.3522 58.904 22.1834 56.292 22.1781H36.1349V45.4837L30.12 48.9444H30.1044L30.0576 48.9759C29.3187 49.4065 28.866 50.1995 28.866 51.0607V90.7822V90.7664H56.292C58.904 90.7559 61.053 88.5923 61.0582 85.9561V85.9509ZM61.0582 78.7302V26.9884C61.0478 24.3522 58.904 22.1834 56.292 22.1781H36.1349V45.4837L30.12 48.9444H30.1044L30.0576 48.9759C29.3187 49.4065 28.866 50.1995 28.866 51.0607V83.5615V83.5457H56.292C58.904 83.5352 61.053 81.3717 61.0582 78.7355V78.7302ZM57.4784 78.7302V26.9884C57.468 24.3522 55.3243 22.1834 52.7123 22.1781H36.1297V45.4837L30.1148 48.9444H30.0992L30.0524 48.9759C29.3135 49.4065 28.8608 50.1995 28.8608 51.0607V83.5615V83.5457H52.707C55.319 83.5352 57.468 81.3717 57.4732 78.7355L57.4784 78.7302Z" fill="black" fill-opacity="0.17"/>
<path d="M5.01465 22.1729H52.7071C55.3243 22.1729 57.4732 24.3469 57.4732 26.9831V75.1173C57.4732 77.7587 55.3191 79.9275 52.7071 79.9275H5.01465C2.39745 79.9275 0.248535 77.7535 0.248535 75.1173V26.9831C0.248535 24.3417 2.40265 22.1729 5.01465 22.1729Z" fill="#0078D4"/>
<path d="M14.0785 41.9128C15.3429 39.1873 17.3929 36.9082 19.9529 35.3643C22.7886 33.7259 26.0198 32.9067 29.2874 33.0012C32.3157 32.9329 35.3023 33.7101 37.9247 35.2383C40.391 36.7192 42.3786 38.8932 43.643 41.4927C45.0219 44.3599 45.7087 47.5107 45.6462 50.6931C45.7139 54.0225 45.0063 57.3203 43.5806 60.3189C42.2902 63.0128 40.2453 65.2657 37.6958 66.7938C34.9745 68.3745 31.8734 69.1674 28.7359 69.0939C25.6452 69.1674 22.5909 68.385 19.9061 66.8306C17.419 65.3444 15.4105 63.1704 14.1201 60.5657C12.7361 57.7404 12.0389 54.6211 12.0961 51.4703C12.0337 48.1724 12.7153 44.9008 14.0837 41.9023L14.0785 41.9128ZM20.3379 57.2836C21.0144 59.006 22.1591 60.5027 23.642 61.595C25.1509 62.661 26.9616 63.2124 28.8035 63.1651C30.7651 63.2439 32.7007 62.6767 34.3137 61.5477C35.781 60.4554 36.8945 58.9535 37.5241 57.2258C38.2317 55.3038 38.5751 53.261 38.5491 51.213C38.5699 49.1439 38.2421 47.0854 37.5813 45.1266C36.9986 43.3622 35.9215 41.8077 34.4854 40.6472C32.9141 39.4604 30.9837 38.8617 29.0221 38.9457C27.1385 38.8985 25.2914 39.4499 23.7408 40.5264C22.2319 41.6239 21.056 43.1311 20.364 44.8746C18.829 48.8656 18.8186 53.2925 20.3379 57.2888V57.2836Z" fill="white"/>
</svg>
