<svg xmlns="http://www.w3.org/2000/svg" width="91" height="92" viewBox="0 0 91 92" fill="none">
  <g filter="url(#filter0_bd_409_3647)">
    <rect x="60.96" y="61.3896" width="30.46" height="30.4626" rx="15.23" transform="rotate(180 60.96 61.3896)" fill="white" fill-opacity="0.15" shape-rendering="crispEdges"/>
  </g>
  <path fill-rule="evenodd" clip-rule="evenodd" d="M44.1279 45.4469L43.9472 45.6275C43.8775 45.6972 43.8222 45.7799 43.7844 45.871C43.7467 45.9621 43.7272 46.0597 43.7272 46.1583C43.7272 46.2568 43.7467 46.3544 43.7844 46.4455C43.8222 46.5366 43.8775 46.6193 43.9472 46.689L44.1623 46.904L44.1651 46.9084L49.6363 52.3786C49.7771 52.5194 49.8561 52.7103 49.8561 52.9093C49.8561 53.1084 49.7771 53.2993 49.6363 53.4401C49.4956 53.5808 49.3047 53.6599 49.1056 53.6599C48.9065 53.6599 48.7156 53.5808 48.5749 53.4401L41.8238 46.689C41.7541 46.6193 41.6987 46.5366 41.661 46.4455C41.6232 46.3544 41.6038 46.2568 41.6038 46.1583C41.6038 46.0597 41.6232 45.9621 41.661 45.871C41.6987 45.7799 41.7541 45.6972 41.8238 45.6275L48.5749 38.8765C48.7156 38.7357 48.9065 38.6566 49.1056 38.6566C49.3047 38.6566 49.4956 38.7357 49.6363 38.8765C49.7771 39.0172 49.8561 39.2081 49.8561 39.4072C49.8561 39.6062 49.7771 39.7971 49.6363 39.9379L44.1651 45.4081C44.1651 45.4081 44.1475 45.4242 44.1279 45.4469Z" fill="white"/>
  <path d="M43.9472 45.6275L44.3006 45.9813L44.3008 45.9811L43.9472 45.6275ZM44.1279 45.4469L44.4815 45.8004L44.4943 45.7875L44.5062 45.7738L44.1279 45.4469ZM43.7844 45.871L43.3225 45.6795L43.3225 45.6795L43.7844 45.871ZM43.9472 46.689L44.3008 46.3354L44.3006 46.3352L43.9472 46.689ZM44.1623 46.904L44.5809 46.6306L44.5525 46.5871L44.5158 46.5505L44.1623 46.904ZM44.1651 46.9084L43.7465 47.1819L43.7749 47.2253L43.8116 47.262L44.1651 46.9084ZM49.6363 52.3786L49.9899 52.0251L49.9898 52.025L49.6363 52.3786ZM49.6363 53.4401L49.2828 53.0865L49.6363 53.4401ZM48.5749 53.4401L48.2213 53.7936L48.2213 53.7936L48.5749 53.4401ZM41.8238 46.689L42.1774 46.3354L42.1772 46.3352L41.8238 46.689ZM41.661 45.871L41.1991 45.6795L41.1991 45.6795L41.661 45.871ZM41.8238 45.6275L42.1772 45.9813L42.1774 45.9811L41.8238 45.6275ZM48.5749 38.8765L48.9284 39.23L48.9284 39.23L48.5749 38.8765ZM49.6363 38.8765L49.2828 39.23L49.2828 39.23L49.6363 38.8765ZM49.6363 39.9379L49.9898 40.2915L49.9899 40.2914L49.6363 39.9379ZM44.1651 45.4081L44.502 45.7776L44.5105 45.7699L44.5186 45.7617L44.1651 45.4081ZM44.3008 45.9811L44.4815 45.8004L43.7744 45.0933L43.5937 45.274L44.3008 45.9811ZM44.2463 46.0625C44.2589 46.0321 44.2773 46.0045 44.3006 45.9813L43.5939 45.2738C43.4776 45.3899 43.3854 45.5278 43.3225 45.6795L44.2463 46.0625ZM44.2272 46.1583C44.2272 46.1254 44.2337 46.0928 44.2463 46.0625L43.3225 45.6795C43.2596 45.8313 43.2272 45.994 43.2272 46.1583L44.2272 46.1583ZM44.2463 46.254C44.2337 46.2237 44.2272 46.1911 44.2272 46.1583L43.2272 46.1583C43.2272 46.3225 43.2596 46.4852 43.3225 46.637L44.2463 46.254ZM44.3006 46.3352C44.2773 46.312 44.2589 46.2844 44.2463 46.254L43.3225 46.637C43.3854 46.7887 43.4776 46.9266 43.5939 47.0427L44.3006 46.3352ZM44.5158 46.5505L44.3008 46.3354L43.5937 47.0425L43.8087 47.2576L44.5158 46.5505ZM43.7437 47.1775L43.7465 47.1819L44.5837 46.6349L44.5809 46.6306L43.7437 47.1775ZM43.8116 47.262L49.2828 52.7322L49.9898 52.025L44.5186 46.5548L43.8116 47.262ZM49.2828 52.7322C49.3297 52.7792 49.3561 52.8429 49.3561 52.9093L50.3561 52.9093C50.3561 52.5777 50.2244 52.2596 49.9899 52.0251L49.2828 52.7322ZM49.3561 52.9093C49.3561 52.9758 49.3297 53.0395 49.2828 53.0865L49.9899 53.7936C50.2244 53.5591 50.3561 53.241 50.3561 52.9093L49.3561 52.9093ZM49.2828 53.0865C49.2358 53.1335 49.172 53.1599 49.1056 53.1599L49.1056 54.1599C49.4373 54.1599 49.7553 54.0281 49.9899 53.7936L49.2828 53.0865ZM49.1056 53.1599C49.0392 53.1599 48.9754 53.1335 48.9284 53.0865L48.2213 53.7936C48.4559 54.0281 48.7739 54.1599 49.1056 54.1599L49.1056 53.1599ZM48.9284 53.0865L42.1774 46.3354L41.4703 47.0425L48.2213 53.7936L48.9284 53.0865ZM42.1772 46.3352C42.1539 46.312 42.1355 46.2844 42.1229 46.254L41.1991 46.637C41.262 46.7887 41.3542 46.9266 41.4705 47.0427L42.1772 46.3352ZM42.1229 46.254C42.1103 46.2237 42.1038 46.1911 42.1038 46.1583L41.1038 46.1583C41.1038 46.3225 41.1362 46.4852 41.1991 46.637L42.1229 46.254ZM42.1038 46.1583C42.1038 46.1254 42.1103 46.0928 42.1229 46.0625L41.1991 45.6795C41.1362 45.8313 41.1038 45.994 41.1038 46.1583L42.1038 46.1583ZM42.1229 46.0625C42.1355 46.0321 42.1539 46.0045 42.1772 45.9813L41.4705 45.2738C41.3542 45.3899 41.262 45.5278 41.1991 45.6795L42.1229 46.0625ZM42.1774 45.9811L48.9284 39.23L48.2213 38.5229L41.4703 45.274L42.1774 45.9811ZM48.9284 39.23C48.9754 39.183 49.0392 39.1566 49.1056 39.1566L49.1056 38.1566C48.7739 38.1566 48.4559 38.2884 48.2213 38.5229L48.9284 39.23ZM49.1056 39.1566C49.172 39.1566 49.2358 39.183 49.2828 39.23L49.9899 38.5229C49.7553 38.2884 49.4373 38.1566 49.1056 38.1566L49.1056 39.1566ZM49.2828 39.23C49.3297 39.277 49.3561 39.3407 49.3561 39.4072L50.3561 39.4072C50.3561 39.0755 50.2244 38.7574 49.9899 38.5229L49.2828 39.23ZM49.3561 39.4072C49.3561 39.4736 49.3297 39.5373 49.2828 39.5843L49.9899 40.2914C50.2244 40.0569 50.3561 39.7388 50.3561 39.4072L49.3561 39.4072ZM49.2828 39.5843L43.8116 45.0546L44.5186 45.7617L49.9898 40.2915L49.2828 39.5843ZM44.1651 45.4081C43.8283 45.0386 43.8283 45.0387 43.8282 45.0387C43.8282 45.0387 43.8282 45.0387 43.8282 45.0387C43.8281 45.0388 43.8281 45.0388 43.8281 45.0388C43.828 45.0389 43.8279 45.039 43.8278 45.039C43.8277 45.0392 43.8275 45.0393 43.8274 45.0395C43.827 45.0398 43.8267 45.0401 43.8263 45.0404C43.8256 45.0411 43.8248 45.0418 43.8239 45.0427C43.8221 45.0443 43.8201 45.0462 43.8177 45.0485C43.813 45.0529 43.8072 45.0586 43.8005 45.0653C43.7874 45.0784 43.7693 45.0972 43.7496 45.1199L44.5062 45.7738C44.5061 45.7739 44.5066 45.7733 44.5072 45.7727C44.5074 45.7726 44.5071 45.7728 44.5064 45.7735C44.506 45.7739 44.5055 45.7744 44.5048 45.7751C44.5044 45.7754 44.504 45.7758 44.5035 45.7762C44.5033 45.7764 44.503 45.7767 44.5028 45.7769C44.5027 45.777 44.5025 45.7771 44.5024 45.7773C44.5023 45.7773 44.5022 45.7774 44.5022 45.7775C44.5021 45.7775 44.5021 45.7775 44.5021 45.7775C44.5021 45.7776 44.502 45.7776 44.502 45.7776C44.502 45.7776 44.502 45.7776 44.1651 45.4081Z" fill="white"/>
  <defs>
    <filter id="filter0_bd_409_3647" x="-29.5" y="-29.0731" width="150.46" height="150.463" filterUnits="userSpaceOnUse" color-interpolation-filters="sRGB">
      <feFlood flood-opacity="0" result="BackgroundImageFix"/>
      <feGaussianBlur in="BackgroundImageFix" stdDeviation="30"/>
      <feComposite in2="SourceAlpha" operator="in" result="effect1_backgroundBlur_409_3647"/>
      <feColorMatrix in="SourceAlpha" type="matrix" values="0 0 0 0 0 0 0 0 0 0 0 0 0 0 0 0 0 0 127 0" result="hardAlpha"/>
      <feOffset/>
      <feGaussianBlur stdDeviation="15"/>
      <feComposite in2="hardAlpha" operator="out"/>
      <feColorMatrix type="matrix" values="0 0 0 0 0 0 0 0 0 0 0 0 0 0 0 0 0 0 0.25 0"/>
      <feBlend mode="normal" in2="effect1_backgroundBlur_409_3647" result="effect2_dropShadow_409_3647"/>
      <feBlend mode="normal" in="SourceGraphic" in2="effect2_dropShadow_409_3647" result="shape"/>
    </filter>
  </defs>
</svg>