<svg width="14" height="13" viewBox="0 0 14 13" fill="none" xmlns="http://www.w3.org/2000/svg">
<g clip-path="url(#clip0_1303_610)">
<path d="M10.0486 0H4.04857C3.1206 0.000992654 2.23093 0.370065 1.57476 1.02624C0.918588 1.68241 0.549516 2.57208 0.548523 3.50005V9.50013C0.549516 10.4281 0.918588 11.3178 1.57476 11.9739C2.23093 12.6301 3.1206 12.9992 4.04857 13.0002H10.0486C10.9766 12.9992 11.8663 12.6301 12.5225 11.9739C13.1786 11.3178 13.5477 10.4281 13.5487 9.50013V3.50005C13.5477 2.57208 13.1786 1.68241 12.5225 1.02624C11.8663 0.370065 10.9766 0.000992654 10.0486 0ZM7.04861 9.50013C6.45526 9.50013 5.87523 9.32418 5.38188 8.99453C4.88852 8.66488 4.504 8.19634 4.27693 7.64815C4.04987 7.09997 3.99046 6.49676 4.10621 5.91481C4.22197 5.33286 4.5077 4.7983 4.92726 4.37874C5.34682 3.95917 5.88138 3.67345 6.46333 3.55769C7.04528 3.44193 7.64849 3.50135 8.19667 3.72841C8.74486 3.95548 9.2134 4.34 9.54305 4.83335C9.8727 5.32671 10.0486 5.90673 10.0486 6.50009C10.0478 7.29549 9.73148 8.05808 9.16904 8.62052C8.60661 9.18296 7.84402 9.4993 7.04861 9.50013ZM10.7987 3.50005C10.6503 3.50005 10.5053 3.45606 10.382 3.37365C10.2586 3.29123 10.1625 3.1741 10.1057 3.03705C10.049 2.90001 10.0341 2.7492 10.0631 2.60372C10.092 2.45823 10.1634 2.32459 10.2683 2.2197C10.3732 2.11481 10.5069 2.04338 10.6523 2.01444C10.7978 1.9855 10.9486 2.00035 11.0857 2.05712C11.2227 2.11388 11.3399 2.21001 11.4223 2.33335C11.5047 2.45669 11.5487 2.6017 11.5487 2.75004C11.5487 2.94895 11.4696 3.13972 11.329 3.28037C11.1883 3.42103 10.9976 3.50005 10.7987 3.50005ZM9.04864 6.50009C9.04864 6.89565 8.93134 7.28234 8.71157 7.61124C8.4918 7.94014 8.17944 8.19649 7.81399 8.34787C7.44853 8.49925 7.04639 8.53885 6.65842 8.46168C6.27046 8.38451 5.91409 8.19403 5.63438 7.91432C5.35467 7.63461 5.16418 7.27824 5.08701 6.89027C5.00984 6.5023 5.04945 6.10017 5.20083 5.73471C5.3522 5.36925 5.60855 5.05689 5.93745 4.83712C6.26636 4.61736 6.65304 4.50006 7.04861 4.50006C7.57905 4.50006 8.08776 4.71078 8.46284 5.08585C8.83792 5.46093 9.04864 5.96965 9.04864 6.50009Z" fill="#003B75"/>
</g>
<defs>
<clipPath id="clip0_1303_610">
<rect width="13.0002" height="13.0002" fill="white" transform="translate(0.548523)"/>
</clipPath>
</defs>
</svg>
