<svg width="13" height="13" viewBox="0 0 13 13" fill="none" xmlns="http://www.w3.org/2000/svg">
<g clip-path="url(#clip0_1303_607)">
<path d="M12.0002 0H1.00001C0.734793 0 0.480436 0.105358 0.292897 0.292897C0.105358 0.480436 0 0.734793 0 1.00001V12.0002C0 12.2654 0.105358 12.5197 0.292897 12.7073C0.480436 12.8948 0.734793 13.0002 1.00001 13.0002H12.0002C12.2654 13.0002 12.5197 12.8948 12.7073 12.7073C12.8948 12.5197 13.0002 12.2654 13.0002 12.0002V1.00001C13.0002 0.734793 12.8948 0.480436 12.7073 0.292897C12.5197 0.105358 12.2654 0 12.0002 0ZM4.50006 9.50013C4.50006 9.63274 4.44738 9.75991 4.35361 9.85368C4.25984 9.94745 4.13266 10.0001 4.00005 10.0001C3.86744 10.0001 3.74026 9.94745 3.64649 9.85368C3.55273 9.75991 3.50005 9.63274 3.50005 9.50013V5.50007C3.50005 5.36746 3.55273 5.24028 3.64649 5.14651C3.74026 5.05275 3.86744 5.00007 4.00005 5.00007C4.13266 5.00007 4.25984 5.05275 4.35361 5.14651C4.44738 5.24028 4.50006 5.36746 4.50006 5.50007V9.50013ZM4.00005 4.50006C3.85172 4.50006 3.70671 4.45607 3.58337 4.37366C3.46003 4.29125 3.3639 4.17411 3.30713 4.03707C3.25037 3.90002 3.23551 3.74922 3.26445 3.60373C3.29339 3.45824 3.36483 3.3246 3.46972 3.21971C3.57461 3.11482 3.70825 3.04339 3.85373 3.01445C3.99922 2.98551 4.15002 3.00036 4.28707 3.05713C4.42412 3.1139 4.54125 3.21003 4.62366 3.33337C4.70608 3.45671 4.75006 3.60171 4.75006 3.75005C4.75006 3.94896 4.67104 4.13973 4.53039 4.28039C4.38974 4.42104 4.19897 4.50006 4.00005 4.50006ZM10.0001 9.50013C10.0001 9.63274 9.94745 9.75991 9.85368 9.85368C9.75991 9.94745 9.63274 10.0001 9.50013 10.0001C9.36752 10.0001 9.24034 9.94745 9.14657 9.85368C9.0528 9.75991 9.00012 9.63274 9.00012 9.50013V7.2501C9.00012 6.91857 8.86842 6.60062 8.634 6.3662C8.39957 6.13178 8.08163 6.00008 7.7501 6.00008C7.41858 6.00008 7.10063 6.13178 6.86621 6.3662C6.63178 6.60062 6.50009 6.91857 6.50009 7.2501V9.50013C6.50009 9.63274 6.44741 9.75991 6.35364 9.85368C6.25987 9.94745 6.13269 10.0001 6.00008 10.0001C5.86747 10.0001 5.74029 9.94745 5.64652 9.85368C5.55275 9.75991 5.50007 9.63274 5.50007 9.50013V5.50007C5.50069 5.3776 5.54624 5.25961 5.62808 5.16849C5.70992 5.07738 5.82236 5.01947 5.94406 5.00575C6.06577 4.99203 6.18827 5.02345 6.28834 5.09406C6.38842 5.16468 6.45909 5.26956 6.48696 5.38882C6.82521 5.15936 7.21957 5.02638 7.62769 5.00414C8.03582 4.9819 8.44229 5.07126 8.80346 5.26261C9.16464 5.45396 9.46687 5.74007 9.6777 6.09023C9.88853 6.44039 10 6.84137 10.0001 7.2501V9.50013Z" fill="#003B75"/>
</g>
<defs>
<clipPath id="clip0_1303_607">
<rect width="13.0002" height="13.0002" fill="white"/>
</clipPath>
</defs>
</svg>
