<svg width="495" height="460" viewBox="0 0 495 460" fill="none" xmlns="http://www.w3.org/2000/svg">
<path d="M410.05 183.081C410.045 183.068 410.041 183.057 410.037 183.047L383.76 28.2998L383.76 28.2997C382.224 19.267 385.621 10.4125 392.471 5.15408L392.472 5.15303C398.752 0.297225 406.88 -0.659972 414.214 2.52757L576.349 73.38C574.619 77.9645 571.462 81.7925 567.237 84.5008C567.236 84.5013 567.236 84.5017 567.235 84.5021L410.184 183.364C410.175 183.349 410.167 183.333 410.158 183.317C410.117 183.24 410.083 183.163 410.059 183.103C410.056 183.095 410.053 183.088 410.05 183.081Z" stroke="#00439C"/>
<path d="M638.948 477.547L638.253 477.252L637.676 477.008L637.671 477.006L433.251 387.799C433.251 387.799 433.25 387.798 433.249 387.798C430.422 386.601 427.441 385.965 424.548 385.965C420.52 385.965 416.576 387.08 413.198 389.227L413.197 389.228L324.209 445.36L324.208 445.361C320.11 447.933 317.957 453.019 318.832 458.132L318.832 458.133L349.813 640.624L349.813 640.625C351.188 648.858 356.439 655.717 363.774 658.906L363.776 658.907C370.465 661.854 377.869 661.296 383.906 657.475L383.907 657.475L639.663 496.167L638.948 477.547ZM638.948 477.547V477.526M638.948 477.547V477.526M638.948 477.526C642.072 479.276 644.081 482.569 644.376 486.362C644.692 490.587 642.959 494.071 639.664 496.166L638.948 477.526Z" stroke="#00439C"/>
<path d="M254.319 327.865L270.635 424.255L270.466 424.172L270.634 425.141C271.18 428.305 269.928 431.268 267.485 432.778L267.481 432.78L84.9744 547.896L84.9738 547.896C78.9364 551.717 71.5319 552.276 64.8438 549.328L64.8415 549.327C57.5061 546.139 52.255 539.279 50.8809 531.046L50.8806 531.045L1.45099 239.595C1.62679 231.626 5.49967 224.471 12.0141 220.256C18.1332 216.356 25.5373 215.797 32.3081 218.746L240.275 309.584L240.278 309.585C247.695 312.773 252.945 319.633 254.319 327.864L254.319 327.865Z" stroke="#00439C"/>
<path d="M381.373 257.475L394.457 334.45H394.373L394.475 335.036C396.172 344.785 392.049 354.276 384.152 359.295L312.717 404.346L312.708 404.352C312.133 404.73 311.571 404.747 310.864 404.469C310.057 404.135 309.42 403.32 309.277 402.258L309.275 402.25L309.274 402.241L296.091 324.683L296.09 324.681C294.393 314.931 298.516 305.441 306.413 300.422L377.826 255.384C378.304 255.15 378.619 255.04 378.9 255.04C379.236 255.04 379.49 255.104 379.75 255.233L379.765 255.24L379.781 255.247C380.589 255.58 381.227 256.395 381.371 257.458L381.372 257.467L381.373 257.475Z" stroke="#00439C"/>
<path d="M51.3295 180.111L51.2337 180.07H51.1292H51.0699C48.6852 178.994 47.1652 176.596 46.9316 173.774C46.7775 170.84 47.9434 168.417 50.1619 166.979C50.1629 166.978 50.164 166.977 50.1651 166.976L306.821 5.18326C306.822 5.183 306.822 5.18275 306.823 5.18249C312.945 1.36 320.268 0.803089 326.954 3.75025L326.956 3.75128C334.292 6.93934 339.543 13.7992 340.917 22.0315L340.917 22.0329L371.568 202.487L371.569 202.49C372.113 205.565 370.868 208.452 368.498 209.965C368.498 209.965 368.497 209.965 368.497 209.966L276.216 268.214C270.26 271.954 262.608 272.513 256.084 269.646L256.083 269.646L51.3295 180.111Z" stroke="#00439C"/>
<path d="M624.674 109.912L624.675 109.912C631.602 112.541 637.007 118.596 638.948 125.442L688.704 418.663V418.702V418.744L688.711 418.786C690.247 427.818 686.85 436.673 680 441.931L679.999 441.932C673.719 446.788 665.509 447.745 658.259 444.559L658.258 444.558L450.375 353.721C442.954 350.451 437.703 343.589 436.329 335.358L436.329 335.357L421.004 244.764C419.469 235.661 423.267 226.824 430.582 222.214L430.582 222.214L605.591 111.823L605.595 111.821C609.056 109.592 612.999 108.479 616.942 108.479C619.519 108.479 622.177 108.956 624.674 109.912Z" stroke="#00439C"/>
</svg>
