<svg width="436" height="566" viewBox="0 0 436 566" fill="none" xmlns="http://www.w3.org/2000/svg">
<path d="M-32.0841 312.706C-32.2723 311.683 -32.931 310.753 -33.7778 310.38C-34.0601 310.287 -34.3424 310.194 -34.6247 310.194C-35.001 310.194 -35.2833 310.287 -35.6597 310.473L-212.746 422.117C-217.639 425.187 -221.309 429.653 -223.379 435.049C-225.166 439.701 -222.908 445.19 -218.486 447.144L-36.5066 526.597C-28.038 530.318 -18.4404 529.202 -11.101 523.527C-3.10293 517.386 0.849029 507.059 -0.938771 496.639L-32.1782 312.613L-32.0841 312.706Z" fill="url(#paint0_linear_0_1)"/>
<path d="M377.228 313.082L376.569 312.803L143.12 210.928C139.827 209.532 136.345 208.788 132.958 208.788C128.253 208.788 123.642 210.091 119.69 212.603L18.0682 276.705C13.1752 279.775 10.6347 285.822 11.6697 291.87L47.0494 500.271C48.649 509.854 54.7651 517.855 63.3277 521.576C71.1376 525.018 79.7943 524.367 86.8514 519.901L378.921 335.69C382.873 333.178 384.943 328.991 384.567 323.967C384.191 319.129 381.462 314.943 377.228 312.989V313.082Z" fill="url(#paint1_linear_0_1)"/>
<path d="M99.2714 151.101L84.2163 62.5307C84.0281 61.1351 83.1812 60.0187 82.0521 59.5535C81.6757 59.3675 81.2993 59.2744 80.8289 59.2744C80.3584 59.2744 79.8879 59.4605 79.3234 59.7396L-2.25678 111.189C-11.4781 117.05 -16.2769 128.121 -14.3009 139.472L0.754252 228.042C0.942441 229.438 1.78933 230.554 2.91846 231.019C3.85941 231.392 4.70625 231.392 5.5531 230.833L87.1332 179.384C96.3545 173.523 101.153 162.452 99.1773 151.101H99.2714Z" fill="url(#paint2_linear_0_1)"/>
<path d="M-293.668 -25.1977H-293.48L-59.6542 77.0492C-52.0325 80.3985 -43.0935 79.7472 -36.1305 75.3745L69.2556 8.85355C72.1725 6.99282 73.678 3.45745 73.0194 -0.264004L38.0161 -206.339C36.4165 -215.922 30.3004 -223.923 21.7378 -227.645C13.9279 -231.087 5.36526 -230.436 -1.78593 -225.97L-294.891 -41.2C-297.62 -39.4323 -299.031 -36.4551 -298.843 -32.9197C-298.561 -29.4774 -296.679 -26.5002 -293.668 -25.1977Z" fill="url(#paint3_linear_0_1)"/>
<path d="M435.19 246.651L378.357 -88.2799C376.099 -96.2811 369.794 -103.352 361.702 -106.422C358.785 -107.538 355.68 -108.097 352.669 -108.097C348.058 -108.097 343.448 -106.794 339.402 -104.189L139.545 21.875C130.982 27.2711 126.56 37.5982 128.347 48.2043L145.849 151.661C147.449 161.243 153.565 169.245 162.221 173.059L399.622 276.794C408.091 280.516 417.689 279.399 425.028 273.724C433.026 267.584 436.978 257.257 435.19 246.744V246.651Z" fill="url(#paint4_linear_0_1)"/>
<path d="M93.983 14.3348C93.9712 14.3056 93.9618 14.281 93.9551 14.2629L63.9462 -162.463L63.9462 -162.463C62.1879 -172.803 66.0763 -182.941 73.92 -188.963L73.9214 -188.964C81.1136 -194.525 90.423 -195.621 98.8218 -191.971L284.039 -111.032C282.063 -105.753 278.438 -101.347 273.581 -98.2336C273.58 -98.2333 273.58 -98.233 273.579 -98.2327L94.1682 14.7043C94.1454 14.6687 94.1222 14.6288 94.0991 14.5854C94.0509 14.4948 94.011 14.4041 93.983 14.3348Z" stroke="#00439C"/>
<path d="M355.365 350.45L354.67 350.155L354.011 349.876L354.006 349.874L120.562 248.002C120.561 248.001 120.56 248.001 120.56 248.001C117.324 246.63 113.909 245.901 110.595 245.901C105.982 245.901 101.465 247.178 97.5957 249.638L97.5942 249.639L-4.02811 313.741L-4.02911 313.741C-8.73599 316.695 -11.2043 322.533 -10.2005 328.398L-10.2004 328.399L25.1793 536.8L25.1795 536.802C26.7526 546.225 32.7641 554.08 41.164 557.731L41.1664 557.732C48.8255 561.108 57.3062 560.468 64.221 556.092L64.2216 556.092L356.29 371.881L355.365 350.45ZM355.365 350.45V350.413M355.365 350.45V350.413M355.365 350.413C359.016 352.408 361.364 356.223 361.706 360.619C362.068 365.468 360.078 369.473 356.292 371.88L355.365 350.413Z" stroke="#00439C"/>
<path d="M76.3162 187.215L61.3603 99.2278L61.3589 99.2193L61.3577 99.2108C61.191 97.9743 60.4469 97.0198 59.4986 96.6291L59.4828 96.6226L59.4675 96.615C59.1606 96.4633 58.8601 96.3877 58.4658 96.3877C58.1261 96.3877 57.7528 96.5203 57.2049 96.7898L-24.3516 148.224C-24.3519 148.224 -24.3523 148.224 -24.3526 148.225C-33.3949 153.973 -38.1142 164.839 -36.1713 175.999L-36.171 176.001L-21.1159 264.572L-21.1144 264.58L-21.1133 264.589C-20.9467 265.824 -20.2041 266.777 -19.2575 267.169C-18.4333 267.494 -17.7653 267.477 -17.0851 267.029L-17.0767 267.024L64.5019 215.576L76.3162 187.215ZM76.3162 187.215H76.2197L76.3217 187.8C78.2646 198.96 73.5454 209.826 64.5034 215.575L76.3162 187.215Z" stroke="#00439C"/>
<path d="M-315.738 10.9146L-315.642 10.9565L-81.8169 113.203L-81.8161 113.204C-74.3452 116.487 -65.5818 115.847 -58.7604 111.564L-315.738 10.9146ZM-315.738 10.9146H-315.843H-315.926C-318.684 9.67691 -320.438 6.90884 -320.707 3.65884C-320.885 0.285385 -319.543 -2.50801 -316.985 -4.16646C-316.984 -4.16698 -316.983 -4.1675 -316.982 -4.16801L-23.8841 -188.934C-23.8837 -188.934 -23.8832 -188.934 -23.8828 -188.934C-16.8718 -193.312 -8.48428 -193.95 -0.826935 -190.575L-0.824585 -190.574C7.57538 -186.923 13.5869 -179.068 15.1599 -169.645L15.1602 -169.643L50.1634 36.432L50.164 36.4354C50.7901 39.9732 49.3572 43.3006 46.6237 45.0443L-58.7595 111.563L-315.738 10.9146Z" stroke="#00439C"/>
<path d="M339.16 -69.3418L339.162 -69.3413C347.095 -66.3313 353.283 -59.3968 355.506 -51.5565L412.327 283.306V283.357V283.399L412.334 283.441C414.092 293.781 410.204 303.919 402.36 309.941L402.359 309.942C395.166 315.504 385.764 316.599 377.46 312.95L377.46 312.95L140.06 209.215C131.563 205.47 125.552 197.614 123.979 188.192L123.979 188.191L106.477 84.7345C104.721 74.3129 109.068 64.1923 117.448 58.9113L117.448 58.9112L317.305 -67.153L317.309 -67.1555C321.273 -69.7076 325.79 -70.9834 330.306 -70.9834C333.257 -70.9834 336.301 -70.4362 339.16 -69.3418Z" stroke="#00439C"/>
<defs>
<linearGradient id="paint0_linear_0_1" x1="-434.69" y1="154.858" x2="-107.869" y2="524.887" gradientUnits="userSpaceOnUse">
<stop stop-color="#0067FF"/>
<stop offset="1" stop-color="#0067FF" stop-opacity="0"/>
</linearGradient>
<linearGradient id="paint1_linear_0_1" x1="-340.385" y1="-15.0712" x2="117.273" y2="585.323" gradientUnits="userSpaceOnUse">
<stop stop-color="#0067FF"/>
<stop offset="1" stop-color="#0067FF" stop-opacity="0"/>
</linearGradient>
<linearGradient id="paint2_linear_0_1" x1="-122.558" y1="-62.9706" x2="124.929" y2="119.231" gradientUnits="userSpaceOnUse">
<stop stop-color="#0067FF"/>
<stop offset="1" stop-color="#0067FF" stop-opacity="0"/>
</linearGradient>
<linearGradient id="paint3_linear_0_1" x1="-649.613" y1="-449.453" x2="-202.593" y2="146.494" gradientUnits="userSpaceOnUse">
<stop stop-color="#0067FF"/>
<stop offset="1" stop-color="#0067FF" stop-opacity="0"/>
</linearGradient>
<linearGradient id="paint4_linear_0_1" x1="-162.108" y1="-383.18" x2="416.403" y2="126.013" gradientUnits="userSpaceOnUse">
<stop stop-color="#0067FF"/>
<stop offset="1" stop-color="#0067FF" stop-opacity="0"/>
</linearGradient>
</defs>
</svg>
