<svg width="13" height="58" viewBox="0 0 13 58" fill="none" xmlns="http://www.w3.org/2000/svg">
<path d="M0.5 17C7.12742 17 12.5 22.3726 12.5 29C12.5 35.6274 7.12742 41 0.5 41V17Z" fill="#002F62"/>
<path fill-rule="evenodd" clip-rule="evenodd" d="M7.17528 33.9087C6.88947 34.1945 6.42606 34.1945 6.14024 33.9087L1.87832 29.6468C1.52104 29.2895 1.52104 28.7102 1.87832 28.353L6.14024 24.091C6.42606 23.8052 6.88946 23.8052 7.17528 24.091C7.4611 24.3768 7.4611 24.8403 7.17528 25.1261L3.3015 28.9999L7.17528 32.8736C7.4611 33.1595 7.4611 33.6229 7.17528 33.9087Z" fill="white"/>
<path d="M0.5 19.5137V0.569336C1.71192 16.2532 8.1194 19.7029 9.14753 20.6827L0.5 19.5137Z" fill="#002F62"/>
<path d="M0.5 38.4892V57.4336C1.71192 41.7498 8.1194 38.3 9.14753 37.3203L0.5 38.4892Z" fill="#002F62"/>
</svg>
