<svg width="12" height="60" viewBox="0 0 12 60" fill="none" xmlns="http://www.w3.org/2000/svg">
<path d="M0 17.8047H2C7.52285 17.8047 12 22.2818 12 27.8047V31.8047C12 37.3275 7.52285 41.8047 2 41.8047H0V17.8047Z" fill="#002F62"/>
<path fill-rule="evenodd" clip-rule="evenodd" d="M1.32472 24.896C1.61053 24.6102 2.07394 24.6102 2.35976 24.896L6.62168 29.1579C6.97895 29.5152 6.97896 30.0945 6.62168 30.4517L2.35975 34.7137C2.07394 34.9995 1.61053 34.9995 1.32471 34.7137C1.0389 34.4278 1.0389 33.9644 1.32471 33.6786L5.1985 29.8048L1.32472 25.931C1.0389 25.6452 1.0389 25.1818 1.32472 24.896Z" fill="white"/>
<path d="M0 19.1661V0.22168C1.21192 15.9055 7.6194 19.3553 8.64753 20.335L0 19.1661Z" fill="#002F62"/>
<path d="M0 40.4462V59.3906C1.21192 43.7068 7.6194 40.257 8.64753 39.2773L0 40.4462Z" fill="#002F62"/>
</svg>
